<svg width="40" height="40" viewBox="0 0 40 40" fill="none" xmlns="http://www.w3.org/2000/svg">
<path d="M27.8125 6.25C24.5859 6.25 21.7609 7.6375 20 9.98281C18.2391 7.6375 15.4141 6.25 12.1875 6.25C9.6191 6.25289 7.15673 7.27447 5.3406 9.0906C3.52447 10.9067 2.50289 13.3691 2.5 15.9375C2.5 26.875 18.7172 35.7281 19.4078 36.0938C19.5898 36.1917 19.7933 36.2429 20 36.2429C20.2067 36.2429 20.4102 36.1917 20.5922 36.0938C21.2828 35.7281 37.5 26.875 37.5 15.9375C37.4971 13.3691 36.4755 10.9067 34.6594 9.0906C32.8433 7.27447 30.3809 6.25289 27.8125 6.25ZM20 33.5625C17.1469 31.9 5 24.3266 5 15.9375C5.00248 14.032 5.76053 12.2053 7.10791 10.8579C8.45529 9.51053 10.282 8.75248 12.1875 8.75C15.2266 8.75 17.7781 10.3688 18.8438 12.9688C18.9379 13.198 19.0981 13.3941 19.304 13.5321C19.5099 13.6701 19.7521 13.7438 20 13.7438C20.2479 13.7438 20.4901 13.6701 20.696 13.5321C20.9019 13.3941 21.0621 13.198 21.1562 12.9688C22.2219 10.3641 24.7734 8.75 27.8125 8.75C29.718 8.75248 31.5447 9.51053 32.8921 10.8579C34.2395 12.2053 34.9975 14.032 35 15.9375C35 24.3141 22.85 31.8984 20 33.5625Z" fill="#E0F2D0"/>
</svg>
