<svg width="40" height="40" viewBox="0 0 40 40" fill="none" xmlns="http://www.w3.org/2000/svg">
<g clip-path="url(#clip0_171_278)">
<path d="M22.4999 24.6372C24.4595 23.4167 25.9682 21.5912 26.7978 19.437C27.6275 17.2827 27.733 14.9168 27.0983 12.6972C26.4636 10.4777 25.1233 8.52522 23.2801 7.13525C21.437 5.74527 19.1913 4.99341 16.8827 4.99341C14.5742 4.99341 12.3285 5.74527 10.4854 7.13525C8.64219 8.52522 7.30188 10.4777 6.66719 12.6972C6.03251 14.9168 6.13797 17.2827 6.96764 19.437C7.79731 21.5912 9.30603 23.4167 11.2656 24.6372C8.03899 25.6934 5.13587 27.6668 2.80149 30.445C2.58808 30.6988 2.48423 31.027 2.5128 31.3574C2.54137 31.6878 2.70002 31.9933 2.95384 32.2067C3.20766 32.4201 3.53586 32.524 3.86625 32.4954C4.19663 32.4668 4.50214 32.3082 4.71556 32.0543C7.85149 28.3106 12.1734 26.2497 16.8749 26.2497C21.5765 26.2497 25.8984 28.3106 29.0421 32.0543C29.2555 32.3082 29.561 32.4668 29.8914 32.4954C30.2218 32.524 30.55 32.4201 30.8038 32.2067C31.0577 31.9933 31.2163 31.6878 31.2449 31.3574C31.2734 31.027 31.1696 30.6988 30.9562 30.445C28.6218 27.6668 25.7187 25.6934 22.4999 24.6372ZM8.74993 15.6247C8.74993 14.0177 9.22645 12.4468 10.1192 11.1106C11.012 9.7745 12.281 8.7331 13.7656 8.11814C15.2503 7.50317 16.8839 7.34227 18.46 7.65578C20.0361 7.96928 21.4839 8.74311 22.6202 9.87941C23.7565 11.0157 24.5303 12.4635 24.8438 14.0395C25.1573 15.6156 24.9964 17.2493 24.3815 18.734C23.7665 20.2186 22.7251 21.4876 21.3889 22.3803C20.0528 23.2731 18.4819 23.7497 16.8749 23.7497C14.7208 23.7472 12.6556 22.8904 11.1324 21.3672C9.60923 19.844 8.75241 17.7788 8.74993 15.6247ZM39.6343 20.884L34.6343 25.884C34.5182 26.0003 34.3804 26.0925 34.2286 26.1554C34.0769 26.2183 33.9142 26.2506 33.7499 26.2506C33.5857 26.2506 33.423 26.2183 33.2713 26.1554C33.1195 26.0925 32.9816 26.0003 32.8656 25.884L30.3656 23.384C30.131 23.1495 29.9992 22.8314 29.9992 22.4997C29.9992 22.168 30.131 21.8498 30.3656 21.6153C30.6001 21.3807 30.9182 21.249 31.2499 21.249C31.5816 21.249 31.8998 21.3807 32.1343 21.6153L33.7499 23.2325L37.8656 19.1153C38.1001 18.8807 38.4182 18.749 38.7499 18.749C39.0816 18.749 39.3998 18.8807 39.6343 19.1153C39.8689 19.3498 40.0006 19.668 40.0006 19.9997C40.0006 20.3314 39.8689 20.6495 39.6343 20.884Z" fill="#E0F2D0"/>
</g>
<defs>
<clipPath id="clip0_171_278">
<rect width="40" height="40" fill="white"/>
</clipPath>
</defs>
</svg>
