<svg width="40" height="40" viewBox="0 0 40 40" fill="none" xmlns="http://www.w3.org/2000/svg">
<path d="M27.1875 7.46059C25.2575 5.23158 23.0852 3.22442 20.7109 1.47621C20.5008 1.32898 20.2504 1.25 19.9937 1.25C19.7371 1.25 19.4867 1.32898 19.2766 1.47621C16.9066 3.22515 14.7386 5.23228 12.8125 7.46059C8.51719 12.3934 6.25 17.5934 6.25 22.4996C6.25 26.1464 7.69866 29.6437 10.2773 32.2224C12.8559 34.801 16.3533 36.2496 20 36.2496C23.6467 36.2496 27.1441 34.801 29.7227 32.2224C32.3013 29.6437 33.75 26.1464 33.75 22.4996C33.75 17.5934 31.4828 12.3934 27.1875 7.46059ZM20 33.7496C17.0173 33.7463 14.1578 32.56 12.0487 30.4509C9.93964 28.3419 8.75331 25.4823 8.75 22.4996C8.75 13.5575 17.4172 6.0934 20 4.06215C22.5828 6.0934 31.25 13.5543 31.25 22.4996C31.2467 25.4823 30.0604 28.3419 27.9513 30.4509C25.8422 32.56 22.9827 33.7463 20 33.7496ZM28.7328 23.959C28.4087 25.7695 27.5376 27.4372 26.2369 28.7376C24.9363 30.038 23.2684 30.9087 21.4578 31.2325C21.3891 31.2435 21.3196 31.2492 21.25 31.2496C20.9364 31.2496 20.6344 31.1317 20.4037 30.9193C20.173 30.7069 20.0306 30.4156 20.0046 30.1031C19.9787 29.7907 20.0711 29.4798 20.2636 29.2323C20.456 28.9848 20.7345 28.8187 21.0437 28.7668C23.6328 28.3309 25.8297 26.134 26.2687 23.5403C26.3243 23.2133 26.5074 22.9218 26.7779 22.7299C27.0483 22.5379 27.384 22.4613 27.7109 22.5168C28.0379 22.5724 28.3294 22.7555 28.5213 23.026C28.7133 23.2964 28.7899 23.6321 28.7344 23.959H28.7328Z" fill="#E0F2D0"/>
</svg>
