<svg width="40" height="40" viewBox="0 0 40 40" fill="none" xmlns="http://www.w3.org/2000/svg">
<path d="M9.12812 20.1656L17.1875 17.1875L20.1562 9.12188C20.3321 8.64426 20.6501 8.23207 21.0676 7.94092C21.485 7.64976 21.9817 7.49365 22.4906 7.49365C22.9996 7.49365 23.4963 7.64976 23.9137 7.94092C24.3311 8.23207 24.6492 8.64426 24.825 9.12188L27.8125 17.1875L35.8781 20.1562C36.3557 20.3321 36.7679 20.6501 37.0591 21.0676C37.3502 21.485 37.5063 21.9817 37.5063 22.4906C37.5063 22.9996 37.3502 23.4963 37.0591 23.9137C36.7679 24.3311 36.3557 24.6492 35.8781 24.825L27.8125 27.8125L24.8437 35.8781C24.6679 36.3557 24.3499 36.7679 23.9324 37.0591C23.515 37.3502 23.0183 37.5064 22.5094 37.5064C22.0004 37.5064 21.5037 37.3502 21.0863 37.0591C20.6689 36.7679 20.3508 36.3557 20.175 35.8781L17.1875 27.8125L9.12187 24.8438C8.64426 24.6679 8.23207 24.3499 7.94091 23.9324C7.64975 23.515 7.49364 23.0183 7.49364 22.5094C7.49364 22.0004 7.64975 21.5037 7.94091 21.0863C8.23207 20.6689 8.64426 20.3508 9.12187 20.175L9.12812 20.1656ZM18.5937 25.6594C18.7634 25.7219 18.9175 25.8205 19.0454 25.9484C19.1732 26.0762 19.2718 26.2303 19.3344 26.4L22.5 34.9766L25.6594 26.4062C25.7218 26.2348 25.821 26.0791 25.95 25.9501C26.0791 25.821 26.2348 25.7218 26.4062 25.6594L34.9766 22.5L26.4062 19.3406C26.2348 19.2782 26.0791 19.179 25.95 19.0499C25.821 18.9209 25.7218 18.7652 25.6594 18.5938L22.5 10.0234L19.3406 18.5938C19.2781 18.7634 19.1795 18.9175 19.0516 19.0454C18.9238 19.1732 18.7697 19.2718 18.6 19.3344L10.0234 22.5L18.5937 25.6594ZM17.5 6.25C17.5 5.91848 17.3683 5.60054 17.1339 5.36612C16.8995 5.1317 16.5815 5 16.25 5H13.75V2.5C13.75 2.16848 13.6183 1.85054 13.3839 1.61612C13.1495 1.3817 12.8315 1.25 12.5 1.25C12.1685 1.25 11.8505 1.3817 11.6161 1.61612C11.3817 1.85054 11.25 2.16848 11.25 2.5V5H8.75C8.41848 5 8.10053 5.1317 7.86611 5.36612C7.63169 5.60054 7.5 5.91848 7.5 6.25C7.5 6.58152 7.63169 6.89946 7.86611 7.13388C8.10053 7.3683 8.41848 7.5 8.75 7.5H11.25V10C11.25 10.3315 11.3817 10.6495 11.6161 10.8839C11.8505 11.1183 12.1685 11.25 12.5 11.25C12.8315 11.25 13.1495 11.1183 13.3839 10.8839C13.6183 10.6495 13.75 10.3315 13.75 10V7.5H16.25C16.5815 7.5 16.8995 7.3683 17.1339 7.13388C17.3683 6.89946 17.5 6.58152 17.5 6.25ZM1.25 13.75C1.25 14.0815 1.38169 14.3995 1.61611 14.6339C1.85053 14.8683 2.16848 15 2.5 15H3.75V16.25C3.75 16.5815 3.88169 16.8995 4.11611 17.1339C4.35053 17.3683 4.66848 17.5 5 17.5C5.33152 17.5 5.64946 17.3683 5.88388 17.1339C6.1183 16.8995 6.25 16.5815 6.25 16.25V15H7.5C7.83152 15 8.14946 14.8683 8.38388 14.6339C8.6183 14.3995 8.75 14.0815 8.75 13.75C8.75 13.4185 8.6183 13.1005 8.38388 12.8661C8.14946 12.6317 7.83152 12.5 7.5 12.5H6.25V11.25C6.25 10.9185 6.1183 10.6005 5.88388 10.3661C5.64946 10.1317 5.33152 10 5 10C4.66848 10 4.35053 10.1317 4.11611 10.3661C3.88169 10.6005 3.75 10.9185 3.75 11.25V12.5H2.5C2.16848 12.5 1.85053 12.6317 1.61611 12.8661C1.38169 13.1005 1.25 13.4185 1.25 13.75Z" fill="#E0F2D0"/>
</svg>
