<svg width="129" height="22" viewBox="0 0 129 22" fill="none" xmlns="http://www.w3.org/2000/svg">
<path d="M7.13592 21.2941C5.6007 21.2941 4.30239 20.8582 3.24101 19.9863C2.17962 19.1144 1.3741 17.892 0.824456 16.3188C0.274809 14.7267 -1.45679e-05 12.8504 -1.45679e-05 10.6897C-1.45679e-05 8.60482 0.322192 6.7853 0.966605 5.23113C1.61102 3.658 2.49235 2.44499 3.6106 1.59209C4.7478 0.720234 6.0461 0.284307 7.50551 0.284307C8.24469 0.284307 8.91753 0.36012 9.52404 0.511746C10.1305 0.64442 10.6612 0.824477 11.1161 1.05192C11.3625 1.18459 11.4857 1.3836 11.4857 1.64895L11.571 5.97031C11.571 6.29251 11.4573 6.45362 11.2298 6.45362C11.0213 6.45362 10.8887 6.33042 10.8318 6.08403L10.6044 5.23113C10.1874 3.658 9.71357 2.57766 9.18288 1.99011C8.65218 1.40255 7.92248 1.10878 6.99377 1.10878C5.61017 1.10878 4.4635 1.93325 3.55374 3.58219C2.66293 5.21217 2.21753 7.58134 2.21753 10.6897C2.21753 13.8928 2.67241 16.3378 3.58217 18.0246C4.51088 19.6925 5.69546 20.5265 7.13592 20.5265C7.913 20.5265 8.50056 20.3559 8.89858 20.0147C9.2966 19.6736 9.49561 19.0386 9.49561 18.1099V11.8837C9.49561 11.4857 9.42927 11.2109 9.2966 11.0593C9.18288 10.9077 8.92701 10.8129 8.52899 10.775L7.42022 10.6613C7.17382 10.6423 7.05063 10.5286 7.05063 10.3201C7.05063 10.1116 7.19278 10.0074 7.47708 10.0074H12.6798C12.9641 10.0074 13.1062 10.1211 13.1062 10.3485C13.1062 10.5191 13.002 10.6234 12.7935 10.6613L12.367 10.7181C11.9501 10.775 11.7037 10.8887 11.6279 11.0593C11.552 11.2299 11.5141 11.5142 11.5141 11.9122V19.6167C11.5141 19.8252 11.4573 19.9958 11.3436 20.1284C11.2298 20.2422 11.0308 20.3748 10.7465 20.5265C10.2916 20.7539 9.77043 20.934 9.18288 21.0666C8.59532 21.2183 7.913 21.2941 7.13592 21.2941ZM17.7825 8.35843C18.5596 7.03169 19.4978 6.36833 20.5971 6.36833C21.2225 6.36833 21.6869 6.55786 21.9901 6.93693C22.2934 7.29704 22.445 7.70454 22.445 8.15942C22.445 8.51953 22.3503 8.81331 22.1607 9.04075C21.9901 9.26819 21.7153 9.38191 21.3363 9.38191C21.033 9.38191 20.8056 9.31557 20.6539 9.1829C20.5213 9.03127 20.4075 8.86069 20.3128 8.67116C20.237 8.48162 20.1422 8.32052 20.0285 8.18785C19.9148 8.03622 19.7252 7.96041 19.4599 7.96041C19.1187 7.96041 18.7965 8.16889 18.4933 8.58587C18.19 8.98389 17.9341 9.52406 17.7256 10.2064C17.5361 10.8887 17.4413 11.6658 17.4413 12.5376V19.1334C17.4413 19.5314 17.4982 19.8157 17.6119 19.9863C17.7446 20.1569 18.0099 20.2611 18.408 20.299L19.1756 20.3843C19.3841 20.4222 19.4883 20.5265 19.4883 20.697C19.4883 20.9245 19.3462 21.0382 19.0619 21.0382H14.2572C13.9729 21.0382 13.8307 20.934 13.8307 20.7255C13.8307 20.5549 13.9539 20.4412 14.2003 20.3843L14.5415 20.3275C14.9395 20.2516 15.1954 20.1379 15.3091 19.9863C15.4418 19.8157 15.5081 19.5314 15.5081 19.1334V9.58092C15.5081 9.23976 15.4512 9.01232 15.3375 8.8986C15.2428 8.76592 15.0627 8.68063 14.7974 8.64273L14.2003 8.55744C13.9539 8.53848 13.8307 8.43424 13.8307 8.24471C13.8307 8.09308 13.9824 7.98884 14.2856 7.93198C14.8732 7.83721 15.3186 7.68558 15.6218 7.4771C15.944 7.26861 16.2757 7.01274 16.6169 6.70949C16.7875 6.53891 16.9296 6.45362 17.0433 6.45362C17.2139 6.45362 17.2992 6.56734 17.2992 6.79478V8.33C17.2992 8.46267 17.3561 8.54796 17.4698 8.58587C17.5835 8.60482 17.6877 8.52901 17.7825 8.35843ZM25.0828 21.2941C24.2868 21.2941 23.6329 21.0477 23.1211 20.5549C22.6094 20.0432 22.3535 19.3703 22.3535 18.5364C22.3535 17.7214 22.6094 16.9538 23.1211 16.2335C23.6329 15.4944 24.3341 14.831 25.2249 14.2434C26.1158 13.6559 27.1298 13.1821 28.267 12.8219C28.5134 12.7461 28.6365 12.585 28.6365 12.3386V9.7515C28.6365 8.84174 28.4944 8.19732 28.2101 7.81826C27.9258 7.42024 27.5373 7.22123 27.0445 7.22123C26.5706 7.22123 26.1347 7.43919 25.7367 7.87512C25.3576 8.29209 25.0828 9.00284 24.9122 10.0074C24.8175 10.6139 24.609 11.0593 24.2868 11.3436C23.9835 11.6089 23.6708 11.7416 23.3486 11.7416C22.8179 11.7416 22.5525 11.4763 22.5525 10.9456C22.5525 10.3959 22.7042 9.85574 23.0074 9.32505C23.3296 8.7754 23.7466 8.28261 24.2583 7.84669C24.7701 7.39181 25.3292 7.03169 25.9357 6.76635C26.5422 6.501 27.1487 6.36833 27.7552 6.36833C29.6316 6.36833 30.5698 7.45814 30.5698 9.63778V18.3374C30.5698 19.1334 30.7688 19.5314 31.1668 19.5314C31.4132 19.5314 31.6407 19.3703 31.8491 19.0481C32.0576 18.7069 32.1619 18.1383 32.1619 17.3423C32.1619 17.0391 32.2851 16.8874 32.5315 16.8874C32.7589 16.8874 32.8726 17.0485 32.8726 17.3707C32.8726 18.7543 32.6262 19.7589 32.1334 20.3843C31.6596 20.9908 31.1194 21.2941 30.5129 21.2941C30.058 21.2941 29.6979 21.114 29.4326 20.7539C29.1672 20.3748 28.9872 19.9294 28.8924 19.4177C28.8735 19.2282 28.7882 19.1334 28.6365 19.1334C28.5039 19.1144 28.3712 19.1997 28.2385 19.3893C27.7836 20.0147 27.3193 20.4886 26.8455 20.8108C26.3716 21.133 25.7841 21.2941 25.0828 21.2941ZM25.8504 19.9863C26.3432 19.9863 26.7981 19.8157 27.215 19.4746C27.632 19.1144 27.9732 18.6406 28.2385 18.0531C28.5039 17.4655 28.6365 16.8021 28.6365 16.063V13.9876C28.6365 13.6275 28.4375 13.5232 28.0395 13.6748C26.8834 14.0918 25.9831 14.6699 25.3387 15.4091C24.7132 16.1293 24.4005 17.0011 24.4005 18.0246C24.4005 19.3324 24.8838 19.9863 25.8504 19.9863ZM37.8596 21.2941C37.0257 21.2941 36.2676 21.0193 35.5852 20.4696C34.9219 19.901 34.3912 19.0955 33.9932 18.0531C33.5951 17.0106 33.3961 15.7692 33.3961 14.3287C33.3961 12.7177 33.633 11.3151 34.1069 10.1211C34.5997 8.92703 35.263 8.00779 36.097 7.36338C36.9309 6.70001 37.8596 6.36833 38.8831 6.36833C39.755 6.36833 40.4373 6.53891 40.9301 6.88007C41.1196 7.01274 41.2144 7.22123 41.2144 7.50553L41.2712 10.974C41.2712 11.2583 41.1575 11.4004 40.9301 11.4004C40.7216 11.4004 40.5889 11.2772 40.5321 11.0308C40.2667 9.98841 40.0108 9.1829 39.7645 8.6143C39.5181 8.0457 39.2622 7.65715 38.9968 7.44867C38.7315 7.22123 38.4377 7.10751 38.1155 7.10751C37.7364 7.10751 37.3384 7.32547 36.9215 7.7614C36.5234 8.19732 36.1823 8.90807 35.898 9.89365C35.6326 10.8603 35.5 12.1396 35.5 13.7317C35.5 15.7597 35.7558 17.2854 36.2676 18.3089C36.7983 19.3324 37.4806 19.8441 38.3145 19.8441C38.9779 19.8441 39.5275 19.5693 39.9635 19.0197C40.4183 18.47 40.8069 17.475 41.1291 16.0345C41.186 15.826 41.2997 15.7218 41.4703 15.7218C41.6977 15.7218 41.783 15.9113 41.7261 16.2904C41.5176 17.6171 41.2239 18.6501 40.8448 19.3893C40.4847 20.1095 40.0488 20.6118 39.537 20.8961C39.0442 21.1614 38.4851 21.2941 37.8596 21.2941ZM47.5505 21.2941C46.6407 21.2941 45.8257 20.9908 45.1055 20.3843C44.3853 19.7778 43.8072 18.9249 43.3713 17.8256C42.9543 16.7074 42.7458 15.4185 42.7458 13.9591C42.7458 12.4618 42.9638 11.1446 43.3997 10.0074C43.8356 8.87017 44.4327 7.97936 45.1908 7.33495C45.9489 6.69053 46.7924 6.36833 47.7211 6.36833C48.8393 6.36833 49.7396 6.83268 50.4219 7.7614C51.1232 8.67116 51.4738 10.159 51.4738 12.2249C51.4738 12.8504 51.2369 13.1631 50.7631 13.1631H45.3614C44.9823 13.1631 44.7928 13.3811 44.7928 13.817C44.7928 15.826 45.0866 17.3328 45.6741 18.3374C46.2617 19.3419 47.0103 19.8441 47.9201 19.8441C48.6403 19.8441 49.2279 19.5883 49.6827 19.0765C50.1376 18.5648 50.5072 17.7024 50.7915 16.4894C50.8484 16.2809 50.9716 16.1767 51.1611 16.1767C51.3885 16.1767 51.4738 16.3662 51.417 16.7453C51.1137 18.4321 50.6304 19.6167 49.967 20.299C49.3037 20.9624 48.4982 21.2941 47.5505 21.2941ZM45.2761 12.4523H48.1475C49.0573 12.4523 49.5122 11.9785 49.5122 11.0308C49.5122 9.79888 49.3605 8.83226 49.0573 8.13099C48.754 7.42971 48.2992 7.07908 47.6926 7.07908C46.9535 7.07908 46.328 7.50553 45.8163 8.35843C45.3235 9.21133 45.0013 10.4243 44.8496 11.9975C44.8117 12.3007 44.9539 12.4523 45.2761 12.4523ZM57.4268 21.0382C57.1425 21.0382 57.0004 20.934 57.0004 20.7255C57.0004 20.5549 57.1236 20.4412 57.3699 20.3843L58.0238 20.2706C58.4219 20.1948 58.6777 20.0905 58.7914 19.9579C58.9241 19.8252 58.9905 19.5598 58.9905 19.1618V2.44499C58.9905 2.04697 58.9241 1.78162 58.7914 1.64895C58.6777 1.51627 58.4219 1.41203 58.0238 1.33622L57.3699 1.2225C57.1236 1.16564 57.0004 1.05192 57.0004 0.881336C57.0004 0.67285 57.1425 0.568607 57.4268 0.568607H66.9793C67.4152 0.568607 67.6521 0.78657 67.69 1.2225L67.9175 5.94188C67.9554 6.26408 67.8322 6.42519 67.5479 6.42519C67.3205 6.42519 67.1878 6.30199 67.1499 6.0556L66.9793 5.00369C66.7708 3.71486 66.3444 2.77667 65.6999 2.18912C65.0555 1.58261 64.1647 1.27936 63.0275 1.27936C62.2694 1.27936 61.7387 1.39308 61.4354 1.62052C61.1511 1.829 61.009 2.20807 61.009 2.75772V9.60935C61.009 9.87469 61.1417 10.0074 61.407 10.0074H62.8285C63.6625 10.0074 64.1742 9.56196 64.3637 8.67116L64.648 7.24966C64.7238 6.96536 64.8849 6.84216 65.1313 6.88007C65.3398 6.91797 65.4441 7.07908 65.4441 7.36338V13.7601C65.4441 14.0444 65.3398 14.2055 65.1313 14.2434C64.8849 14.2813 64.7238 14.1581 64.648 13.8738L64.3637 12.4808C64.2311 11.8174 64.0415 11.3815 63.7951 11.173C63.5677 10.9645 63.236 10.8603 62.8001 10.8603H61.407C61.1417 10.8603 61.009 10.9929 61.009 11.2583V18.3942C61.009 19.0765 61.1796 19.5693 61.5207 19.8726C61.8808 20.1758 62.5253 20.3275 63.454 20.3275C64.4016 20.3275 65.2072 20.0905 65.8705 19.6167C66.5528 19.1239 67.0267 18.2142 67.292 16.8874L67.6332 15.2101C67.69 14.9637 67.8322 14.8405 68.0596 14.8405C68.325 14.8405 68.4387 15.0016 68.4008 15.3238L68.1165 20.3843C68.0786 20.8202 67.8417 21.0382 67.4057 21.0382H57.4268ZM72.7826 21.2941C72.3466 21.2941 71.8823 21.2372 71.3895 21.1235C70.8967 21.0287 70.4987 20.9055 70.1954 20.7539C70.0249 20.6591 69.9396 20.498 69.9396 20.2706L69.8543 17.0864C69.8543 16.7642 69.9775 16.6031 70.2239 16.6031C70.4324 16.6031 70.5745 16.7548 70.6503 17.058C70.9725 18.4037 71.3611 19.3229 71.8159 19.8157C72.2898 20.3085 72.8584 20.5549 73.5217 20.5549C74.0714 20.5549 74.5263 20.3464 74.8864 19.9294C75.2465 19.4935 75.4266 18.8965 75.4266 18.1383C75.4266 17.3802 75.2181 16.7074 74.8011 16.1198C74.3841 15.5323 73.6828 14.8879 72.6973 14.1866C71.7117 13.5232 70.9915 12.8598 70.5366 12.1965C70.0817 11.5142 69.8543 10.775 69.8543 9.97894C69.8543 8.8986 70.2333 8.02674 70.9915 7.36338C71.7496 6.70001 72.7541 6.36833 74.0051 6.36833C74.3841 6.36833 74.7537 6.41571 75.1138 6.51048C75.4739 6.58629 75.7961 6.71896 76.0804 6.9085C76.251 7.02222 76.3363 7.17384 76.3363 7.36338L76.3932 10.4907C76.3932 10.775 76.2795 10.9171 76.052 10.9171C75.9193 10.9171 75.8246 10.8792 75.7677 10.8034C75.7109 10.7086 75.6635 10.5949 75.6256 10.4622C75.2465 9.23028 74.8674 8.37738 74.4884 7.90355C74.1093 7.41076 73.6449 7.16437 73.0953 7.16437C72.6025 7.16437 72.195 7.33495 71.8728 7.67611C71.5506 8.01727 71.3895 8.44372 71.3895 8.95546C71.3895 9.61882 71.5885 10.1969 71.9865 10.6897C72.3845 11.1825 73.1048 11.789 74.1472 12.5092C75.0949 13.1915 75.8056 13.9307 76.2795 14.7267C76.7722 15.5038 77.0186 16.3567 77.0186 17.2854C77.0186 18.4985 76.6301 19.4746 75.853 20.2137C75.0759 20.934 74.0524 21.2941 72.7826 21.2941ZM81.6987 21.2941C81.0353 21.2941 80.4857 21.0666 80.0498 20.6118C79.6328 20.1379 79.4243 19.3703 79.4243 18.3089V7.67611C79.4243 7.44867 79.3106 7.33495 79.0831 7.33495H78.2587C77.9554 7.33495 77.8038 7.22123 77.8038 6.99379C77.8038 6.84216 77.8891 6.70949 78.0597 6.59577C78.6851 6.15984 79.1874 5.69548 79.5665 5.2027C79.9455 4.69096 80.2772 3.99916 80.5615 3.12731C80.6942 2.72929 80.8553 2.53028 81.0448 2.53028C81.2533 2.53028 81.3575 2.6819 81.3575 2.98516V6.14089C81.3575 6.40623 81.4902 6.53891 81.7556 6.53891H83.6035C83.9068 6.53891 84.0584 6.67158 84.0584 6.93693C84.0584 7.20227 83.9068 7.33495 83.6035 7.33495H81.7556C81.4902 7.33495 81.3575 7.46762 81.3575 7.73297V18.3374C81.3575 18.7543 81.4239 19.086 81.5566 19.3324C81.6892 19.5598 81.9356 19.6736 82.2957 19.6736C82.6938 19.6736 83.016 19.4746 83.2624 19.0765C83.5277 18.6785 83.6983 18.0341 83.7741 17.1433C83.812 16.878 83.9352 16.7453 84.1437 16.7453C84.3711 16.7453 84.4848 16.8874 84.4848 17.1717C84.428 18.6311 84.1247 19.683 83.5751 20.3275C83.0444 20.9719 82.4189 21.2941 81.6987 21.2941ZM90.0511 21.2941C89.1414 21.2941 88.3264 20.9908 87.6061 20.3843C86.8859 19.7778 86.3078 18.9249 85.8719 17.8256C85.4549 16.7074 85.2465 15.4185 85.2465 13.9591C85.2465 12.4618 85.4644 11.1446 85.9003 10.0074C86.3363 8.87017 86.9333 7.97936 87.6914 7.33495C88.4496 6.69053 89.293 6.36833 90.2217 6.36833C91.34 6.36833 92.2402 6.83268 92.9226 7.7614C93.6238 8.67116 93.9745 10.159 93.9745 12.2249C93.9745 12.8504 93.7376 13.1631 93.2637 13.1631H87.862C87.483 13.1631 87.2934 13.3811 87.2934 13.817C87.2934 15.826 87.5872 17.3328 88.1747 18.3374C88.7623 19.3419 89.511 19.8441 90.4207 19.8441C91.1409 19.8441 91.7285 19.5883 92.1834 19.0765C92.6383 18.5648 93.0078 17.7024 93.2921 16.4894C93.349 16.2809 93.4722 16.1767 93.6617 16.1767C93.8892 16.1767 93.9745 16.3662 93.9176 16.7453C93.6144 18.4321 93.131 19.6167 92.4677 20.299C91.8043 20.9624 90.9988 21.2941 90.0511 21.2941ZM87.7767 12.4523H90.6482C91.5579 12.4523 92.0128 11.9785 92.0128 11.0308C92.0128 9.79888 91.8612 8.83226 91.5579 8.13099C91.2547 7.42971 90.7998 7.07908 90.1933 7.07908C89.4541 7.07908 88.8286 7.50553 88.3169 8.35843C87.8241 9.21133 87.5019 10.4243 87.3503 11.9975C87.3124 12.3007 87.4545 12.4523 87.7767 12.4523ZM87.464 4.37823C87.1418 4.5109 86.9238 4.47299 86.8101 4.26451C86.6774 4.05602 86.7627 3.84753 87.066 3.63905L91.1599 0.454887C91.3494 0.30326 91.5295 0.18954 91.7001 0.113726C91.8706 0.0379137 92.0791 7.51085e-06 92.3255 7.51085e-06C92.6667 7.51085e-06 92.932 0.104251 93.1216 0.312737C93.3111 0.50227 93.4059 0.710757 93.4059 0.938197C93.4059 1.18459 93.3395 1.40255 93.2069 1.59209C93.0931 1.76267 92.8657 1.92377 92.5245 2.0754L87.464 4.37823ZM98.5934 21.2941C97.9301 21.2941 97.3804 21.0666 96.9445 20.6118C96.5275 20.1379 96.319 19.3703 96.319 18.3089V7.67611C96.319 7.44867 96.2053 7.33495 95.9779 7.33495H95.1534C94.8502 7.33495 94.6985 7.22123 94.6985 6.99379C94.6985 6.84216 94.7838 6.70949 94.9544 6.59577C95.5799 6.15984 96.0821 5.69548 96.4612 5.2027C96.8403 4.69096 97.1719 3.99916 97.4562 3.12731C97.5889 2.72929 97.75 2.53028 97.9396 2.53028C98.148 2.53028 98.2523 2.6819 98.2523 2.98516V6.14089C98.2523 6.40623 98.385 6.53891 98.6503 6.53891H100.498C100.802 6.53891 100.953 6.67158 100.953 6.93693C100.953 7.20227 100.802 7.33495 100.498 7.33495H98.6503C98.385 7.33495 98.2523 7.46762 98.2523 7.73297V18.3374C98.2523 18.7543 98.3186 19.086 98.4513 19.3324C98.584 19.5598 98.8304 19.6736 99.1905 19.6736C99.5885 19.6736 99.9107 19.4746 100.157 19.0765C100.422 18.6785 100.593 18.0341 100.669 17.1433C100.707 16.878 100.83 16.7453 101.038 16.7453C101.266 16.7453 101.38 16.8874 101.38 17.1717C101.323 18.6311 101.019 19.683 100.47 20.3275C99.9391 20.9719 99.3137 21.2941 98.5934 21.2941ZM104.728 3.83806C104.33 3.83806 103.989 3.69591 103.705 3.41161C103.44 3.12731 103.307 2.76719 103.307 2.33127C103.307 1.89534 103.44 1.5447 103.705 1.27936C103.989 0.995057 104.33 0.852907 104.728 0.852907C105.126 0.852907 105.458 0.995057 105.723 1.27936C105.989 1.5447 106.121 1.89534 106.121 2.33127C106.121 2.76719 105.989 3.12731 105.723 3.41161C105.458 3.69591 105.126 3.83806 104.728 3.83806ZM102.34 21.0382C102.056 21.0382 101.914 20.934 101.914 20.7255C101.914 20.5549 102.037 20.4412 102.283 20.3843L102.625 20.3275C103.098 20.2516 103.402 20.1379 103.534 19.9863C103.667 19.8157 103.733 19.5314 103.733 19.1334V9.58092C103.733 9.23976 103.676 9.01232 103.563 8.8986C103.468 8.76592 103.288 8.68063 103.023 8.64273L102.426 8.55744C102.179 8.53848 102.056 8.43424 102.056 8.24471C102.056 8.09308 102.208 7.98884 102.511 7.93198C103.098 7.83721 103.572 7.68558 103.932 7.4771C104.292 7.26861 104.643 7.01274 104.984 6.70949C105.155 6.53891 105.297 6.45362 105.411 6.45362C105.581 6.45362 105.667 6.56734 105.667 6.79478V19.1334C105.667 19.5314 105.723 19.8157 105.837 19.9863C105.951 20.1569 106.169 20.2611 106.491 20.299L107.202 20.3843C107.41 20.4222 107.514 20.5265 107.514 20.697C107.514 20.9245 107.372 21.0382 107.088 21.0382H102.34ZM112.651 21.2941C111.817 21.2941 111.058 21.0193 110.376 20.4696C109.713 19.901 109.182 19.0955 108.784 18.0531C108.386 17.0106 108.187 15.7692 108.187 14.3287C108.187 12.7177 108.424 11.3151 108.898 10.1211C109.391 8.92703 110.054 8.00779 110.888 7.36338C111.722 6.70001 112.651 6.36833 113.674 6.36833C114.546 6.36833 115.228 6.53891 115.721 6.88007C115.911 7.01274 116.005 7.22123 116.005 7.50553L116.062 10.974C116.062 11.2583 115.948 11.4004 115.721 11.4004C115.512 11.4004 115.38 11.2772 115.323 11.0308C115.058 9.98841 114.802 9.1829 114.555 8.6143C114.309 8.0457 114.053 7.65715 113.788 7.44867C113.522 7.22123 113.229 7.10751 112.906 7.10751C112.527 7.10751 112.129 7.32547 111.712 7.7614C111.314 8.19732 110.973 8.90807 110.689 9.89365C110.424 10.8603 110.291 12.1396 110.291 13.7317C110.291 15.7597 110.547 17.2854 111.058 18.3089C111.589 19.3324 112.271 19.8441 113.105 19.8441C113.769 19.8441 114.318 19.5693 114.754 19.0197C115.209 18.47 115.598 17.475 115.92 16.0345C115.977 15.826 116.091 15.7218 116.261 15.7218C116.489 15.7218 116.574 15.9113 116.517 16.2904C116.309 17.6171 116.015 18.6501 115.636 19.3893C115.276 20.1095 114.84 20.6118 114.328 20.8961C113.835 21.1614 113.276 21.2941 112.651 21.2941ZM120.294 21.2941C119.498 21.2941 118.844 21.0477 118.333 20.5549C117.821 20.0432 117.565 19.3703 117.565 18.5364C117.565 17.7214 117.821 16.9538 118.333 16.2335C118.844 15.4944 119.546 14.831 120.437 14.2434C121.327 13.6559 122.341 13.1821 123.479 12.8219C123.725 12.7461 123.848 12.585 123.848 12.3386V9.7515C123.848 8.84174 123.706 8.19732 123.422 7.81826C123.137 7.42024 122.749 7.22123 122.256 7.22123C121.782 7.22123 121.346 7.43919 120.948 7.87512C120.569 8.29209 120.294 9.00284 120.124 10.0074C120.029 10.6139 119.821 11.0593 119.498 11.3436C119.195 11.6089 118.882 11.7416 118.56 11.7416C118.03 11.7416 117.764 11.4763 117.764 10.9456C117.764 10.3959 117.916 9.85574 118.219 9.32505C118.541 8.7754 118.958 8.28261 119.47 7.84669C119.982 7.39181 120.541 7.03169 121.147 6.76635C121.754 6.501 122.36 6.36833 122.967 6.36833C124.843 6.36833 125.781 7.45814 125.781 9.63778V18.3374C125.781 19.1334 125.98 19.5314 126.378 19.5314C126.625 19.5314 126.852 19.3703 127.061 19.0481C127.269 18.7069 127.373 18.1383 127.373 17.3423C127.373 17.0391 127.497 16.8874 127.743 16.8874C127.971 16.8874 128.084 17.0485 128.084 17.3707C128.084 18.7543 127.838 19.7589 127.345 20.3843C126.871 20.9908 126.331 21.2941 125.725 21.2941C125.27 21.2941 124.91 21.114 124.644 20.7539C124.379 20.3748 124.199 19.9294 124.104 19.4177C124.085 19.2282 124 19.1334 123.848 19.1334C123.716 19.1144 123.583 19.1997 123.45 19.3893C122.995 20.0147 122.531 20.4886 122.057 20.8108C121.583 21.133 120.996 21.2941 120.294 21.2941ZM121.062 19.9863C121.555 19.9863 122.01 19.8157 122.427 19.4746C122.844 19.1144 123.185 18.6406 123.45 18.0531C123.716 17.4655 123.848 16.8021 123.848 16.063V13.9876C123.848 13.6275 123.649 13.5232 123.251 13.6748C122.095 14.0918 121.195 14.6699 120.55 15.4091C119.925 16.1293 119.612 17.0011 119.612 18.0246C119.612 19.3324 120.095 19.9863 121.062 19.9863Z" fill="#E0F2D0"/>
</svg>
