<svg width="324" height="27" viewBox="0 0 324 27" fill="none" xmlns="http://www.w3.org/2000/svg">
<path d="M7.02846 20.972C5.51646 20.972 4.2378 20.5426 3.19246 19.684C2.14713 18.8253 1.3538 17.6213 0.812463 16.072C0.271129 14.504 0.000462726 12.656 0.000462726 10.528C0.000462726 8.47464 0.317796 6.68264 0.952463 5.15197C1.58713 3.60264 2.45513 2.40797 3.55646 1.56797C4.67646 0.709304 5.95513 0.27997 7.39246 0.27997C8.12046 0.27997 8.78313 0.354636 9.38046 0.503969C9.9778 0.634636 10.5005 0.81197 10.9485 1.03597C11.1911 1.16664 11.3125 1.36264 11.3125 1.62397L11.3965 5.87997C11.3965 6.1973 11.2845 6.35597 11.0605 6.35597C10.8551 6.35597 10.7245 6.23464 10.6685 5.99197L10.4445 5.15197C10.0338 3.60264 9.56713 2.53864 9.04446 1.95997C8.5218 1.3813 7.80313 1.09197 6.88846 1.09197C5.5258 1.09197 4.39646 1.90397 3.50046 3.52797C2.62313 5.1333 2.18446 7.46664 2.18446 10.528C2.18446 13.6826 2.63246 16.0906 3.52846 17.752C4.44313 19.3946 5.6098 20.216 7.02846 20.216C7.7938 20.216 8.37246 20.048 8.76446 19.712C9.15646 19.376 9.35246 18.7506 9.35246 17.836V11.704C9.35246 11.312 9.28713 11.0413 9.15646 10.892C9.04446 10.7426 8.79246 10.6493 8.40046 10.612L7.30846 10.5C7.0658 10.4813 6.94446 10.3693 6.94446 10.164C6.94446 9.95864 7.08446 9.85597 7.36446 9.85597H12.4885C12.7685 9.85597 12.9085 9.96797 12.9085 10.192C12.9085 10.36 12.8058 10.4626 12.6005 10.5L12.1805 10.556C11.7698 10.612 11.5271 10.724 11.4525 10.892C11.3778 11.06 11.3405 11.34 11.3405 11.732V19.32C11.3405 19.5253 11.2845 19.6933 11.1725 19.824C11.0605 19.936 10.8645 20.0666 10.5845 20.216C10.1365 20.44 9.62313 20.6173 9.04446 20.748C8.4658 20.8973 7.7938 20.972 7.02846 20.972ZM17.514 8.23197C18.2794 6.9253 19.2034 6.27197 20.286 6.27197C20.902 6.27197 21.3594 6.45864 21.658 6.83197C21.9567 7.18664 22.106 7.58797 22.106 8.03597C22.106 8.39064 22.0127 8.67997 21.826 8.90397C21.658 9.12797 21.3874 9.23997 21.014 9.23997C20.7154 9.23997 20.4914 9.17464 20.342 9.04397C20.2114 8.89464 20.0994 8.72664 20.006 8.53997C19.9314 8.3533 19.838 8.19464 19.726 8.06397C19.614 7.91464 19.4274 7.83997 19.166 7.83997C18.83 7.83997 18.5127 8.0453 18.214 8.45597C17.9154 8.84797 17.6634 9.37997 17.458 10.052C17.2714 10.724 17.178 11.4893 17.178 12.348V18.844C17.178 19.236 17.234 19.516 17.346 19.684C17.4767 19.852 17.738 19.9546 18.13 19.992L18.886 20.076C19.0914 20.1133 19.194 20.216 19.194 20.384C19.194 20.608 19.054 20.72 18.774 20.72H14.042C13.762 20.72 13.622 20.6173 13.622 20.412C13.622 20.244 13.7434 20.132 13.986 20.076L14.322 20.02C14.714 19.9453 14.966 19.8333 15.078 19.684C15.2087 19.516 15.274 19.236 15.274 18.844V9.43597C15.274 9.09997 15.218 8.87597 15.106 8.76397C15.0127 8.6333 14.8354 8.5493 14.574 8.51197L13.986 8.42797C13.7434 8.4093 13.622 8.30664 13.622 8.11997C13.622 7.97064 13.7714 7.86797 14.07 7.81197C14.6487 7.71864 15.0874 7.5693 15.386 7.36397C15.7034 7.15864 16.03 6.90664 16.366 6.60797C16.534 6.43997 16.674 6.35597 16.786 6.35597C16.954 6.35597 17.038 6.46797 17.038 6.69197V8.20397C17.038 8.33464 17.094 8.41864 17.206 8.45597C17.318 8.47464 17.4207 8.39997 17.514 8.23197ZM24.7039 20.972C23.9199 20.972 23.2759 20.7293 22.7719 20.244C22.2679 19.74 22.0159 19.0773 22.0159 18.256C22.0159 17.4533 22.2679 16.6973 22.7719 15.988C23.2759 15.26 23.9666 14.6066 24.8439 14.028C25.7212 13.4493 26.7199 12.9826 27.8399 12.628C28.0826 12.5533 28.2039 12.3946 28.2039 12.152V9.60397C28.2039 8.70797 28.0639 8.0733 27.7839 7.69997C27.5039 7.30797 27.1212 7.11197 26.6359 7.11197C26.1692 7.11197 25.7399 7.32664 25.3479 7.75597C24.9746 8.16664 24.7039 8.86664 24.5359 9.85597C24.4426 10.4533 24.2372 10.892 23.9199 11.172C23.6212 11.4333 23.3132 11.564 22.9959 11.564C22.4732 11.564 22.2119 11.3026 22.2119 10.78C22.2119 10.2386 22.3612 9.70664 22.6599 9.18397C22.9772 8.64264 23.3879 8.1573 23.8919 7.72797C24.3959 7.27997 24.9466 6.9253 25.5439 6.66397C26.1412 6.40264 26.7386 6.27197 27.3359 6.27197C29.1839 6.27197 30.1079 7.3453 30.1079 9.49197V18.06C30.1079 18.844 30.3039 19.236 30.6959 19.236C30.9386 19.236 31.1626 19.0773 31.3679 18.76C31.5732 18.424 31.6759 17.864 31.6759 17.08C31.6759 16.7813 31.7972 16.632 32.0399 16.632C32.2639 16.632 32.3759 16.7906 32.3759 17.108C32.3759 18.4706 32.1332 19.46 31.6479 20.076C31.1812 20.6733 30.6492 20.972 30.0519 20.972C29.6039 20.972 29.2492 20.7946 28.9879 20.44C28.7266 20.0666 28.5492 19.628 28.4559 19.124C28.4372 18.9373 28.3532 18.844 28.2039 18.844C28.0732 18.8253 27.9426 18.9093 27.8119 19.096C27.3639 19.712 26.9066 20.1786 26.4399 20.496C25.9732 20.8133 25.3946 20.972 24.7039 20.972ZM25.4599 19.684C25.9452 19.684 26.3932 19.516 26.8039 19.18C27.2146 18.8253 27.5506 18.3586 27.8119 17.78C28.0732 17.2013 28.2039 16.548 28.2039 15.82V13.776C28.2039 13.4213 28.0079 13.3186 27.6159 13.468C26.4772 13.8786 25.5906 14.448 24.9559 15.176C24.3399 15.8853 24.0319 16.744 24.0319 17.752C24.0319 19.04 24.5079 19.684 25.4599 19.684ZM37.2875 20.972C36.4662 20.972 35.7195 20.7013 35.0475 20.16C34.3942 19.6 33.8715 18.8066 33.4795 17.78C33.0875 16.7533 32.8915 15.5306 32.8915 14.112C32.8915 12.5253 33.1248 11.144 33.5915 9.96797C34.0768 8.79197 34.7302 7.88664 35.5515 7.25197C36.3728 6.59864 37.2875 6.27197 38.2955 6.27197C39.1542 6.27197 39.8262 6.43997 40.3115 6.77597C40.4982 6.90664 40.5915 7.11197 40.5915 7.39197L40.6475 10.808C40.6475 11.088 40.5355 11.228 40.3115 11.228C40.1062 11.228 39.9755 11.1066 39.9195 10.864C39.6582 9.8373 39.4062 9.04397 39.1635 8.48397C38.9208 7.92397 38.6688 7.5413 38.4075 7.33597C38.1462 7.11197 37.8568 6.99997 37.5395 6.99997C37.1662 6.99997 36.7742 7.21464 36.3635 7.64397C35.9715 8.0733 35.6355 8.7733 35.3555 9.74397C35.0942 10.696 34.9635 11.956 34.9635 13.524C34.9635 15.5213 35.2155 17.024 35.7195 18.032C36.2422 19.04 36.9142 19.544 37.7355 19.544C38.3888 19.544 38.9302 19.2733 39.3595 18.732C39.8075 18.1906 40.1902 17.2106 40.5075 15.792C40.5635 15.5866 40.6755 15.484 40.8435 15.484C41.0675 15.484 41.1515 15.6706 41.0955 16.044C40.8902 17.3506 40.6008 18.368 40.2275 19.096C39.8728 19.8053 39.4435 20.3 38.9395 20.58C38.4542 20.8413 37.9035 20.972 37.2875 20.972ZM46.8318 20.972C45.9358 20.972 45.1331 20.6733 44.4238 20.076C43.7144 19.4786 43.1451 18.6386 42.7158 17.556C42.3051 16.4546 42.0998 15.1853 42.0998 13.748C42.0998 12.2733 42.3144 10.976 42.7438 9.85597C43.1731 8.73597 43.7611 7.85864 44.5078 7.22397C45.2544 6.5893 46.0851 6.27197 46.9998 6.27197C48.1011 6.27197 48.9878 6.7293 49.6598 7.64397C50.3504 8.53997 50.6958 10.0053 50.6958 12.04C50.6958 12.656 50.4624 12.964 49.9958 12.964H44.6758C44.3024 12.964 44.1158 13.1786 44.1158 13.608C44.1158 15.5866 44.4051 17.0706 44.9838 18.06C45.5624 19.0493 46.2998 19.544 47.1958 19.544C47.9051 19.544 48.4838 19.292 48.9318 18.788C49.3798 18.284 49.7438 17.4346 50.0238 16.24C50.0798 16.0346 50.2011 15.932 50.3878 15.932C50.6118 15.932 50.6958 16.1186 50.6398 16.492C50.3411 18.1533 49.8651 19.32 49.2118 19.992C48.5584 20.6453 47.7651 20.972 46.8318 20.972ZM44.5918 12.264H47.4198C48.3158 12.264 48.7638 11.7973 48.7638 10.864C48.7638 9.65064 48.6144 8.69864 48.3158 8.00797C48.0171 7.3173 47.5691 6.97197 46.9718 6.97197C46.2438 6.97197 45.6278 7.39197 45.1238 8.23197C44.6384 9.07197 44.3211 10.2666 44.1718 11.816C44.1344 12.1146 44.2744 12.264 44.5918 12.264ZM56.5587 20.72C56.2787 20.72 56.1387 20.6173 56.1387 20.412C56.1387 20.244 56.26 20.132 56.5027 20.076L57.1467 19.964C57.5387 19.8893 57.7907 19.7866 57.9027 19.656C58.0334 19.5253 58.0987 19.264 58.0987 18.872V2.40797C58.0987 2.01597 58.0334 1.75464 57.9027 1.62397C57.7907 1.4933 57.5387 1.39064 57.1467 1.31597L56.5027 1.20397C56.26 1.14797 56.1387 1.03597 56.1387 0.867969C56.1387 0.662636 56.2787 0.55997 56.5587 0.55997H65.9667C66.396 0.55997 66.6294 0.774637 66.6667 1.20397L66.8907 5.85197C66.928 6.1693 66.8067 6.32797 66.5267 6.32797C66.3027 6.32797 66.172 6.20664 66.1347 5.96397L65.9667 4.92797C65.7614 3.65864 65.3414 2.73464 64.7067 2.15597C64.072 1.55864 63.1947 1.25997 62.0747 1.25997C61.328 1.25997 60.8054 1.37197 60.5067 1.59597C60.2267 1.8013 60.0867 2.17464 60.0867 2.71597V9.46397C60.0867 9.7253 60.2174 9.85597 60.4787 9.85597H61.8787C62.7 9.85597 63.204 9.4173 63.3907 8.53997L63.6707 7.13997C63.7454 6.85997 63.904 6.73864 64.1467 6.77597C64.352 6.8133 64.4547 6.97197 64.4547 7.25197V13.552C64.4547 13.832 64.352 13.9906 64.1467 14.028C63.904 14.0653 63.7454 13.944 63.6707 13.664L63.3907 12.292C63.26 11.6386 63.0734 11.2093 62.8307 11.004C62.6067 10.7986 62.28 10.696 61.8507 10.696H60.4787C60.2174 10.696 60.0867 10.8266 60.0867 11.088V18.116C60.0867 18.788 60.2547 19.2733 60.5907 19.572C60.9454 19.8706 61.58 20.02 62.4947 20.02C63.428 20.02 64.2214 19.7866 64.8747 19.32C65.5467 18.8346 66.0134 17.9386 66.2747 16.632L66.6107 14.98C66.6667 14.7373 66.8067 14.616 67.0307 14.616C67.292 14.616 67.404 14.7746 67.3667 15.092L67.0867 20.076C67.0494 20.5053 66.816 20.72 66.3867 20.72H56.5587ZM71.6822 20.972C71.2529 20.972 70.7955 20.916 70.3102 20.804C69.8249 20.7106 69.4329 20.5893 69.1342 20.44C68.9662 20.3466 68.8822 20.188 68.8822 19.964L68.7982 16.828C68.7982 16.5106 68.9195 16.352 69.1622 16.352C69.3675 16.352 69.5075 16.5013 69.5822 16.8C69.8995 18.1253 70.2822 19.0306 70.7302 19.516C71.1969 20.0013 71.7569 20.244 72.4102 20.244C72.9515 20.244 73.3995 20.0386 73.7542 19.628C74.1089 19.1986 74.2862 18.6106 74.2862 17.864C74.2862 17.1173 74.0809 16.4546 73.6702 15.876C73.2595 15.2973 72.5689 14.6626 71.5982 13.972C70.6275 13.3186 69.9182 12.6653 69.4702 12.012C69.0222 11.34 68.7982 10.612 68.7982 9.82797C68.7982 8.76397 69.1715 7.9053 69.9182 7.25197C70.6649 6.59864 71.6542 6.27197 72.8862 6.27197C73.2595 6.27197 73.6235 6.31864 73.9782 6.41197C74.3329 6.48664 74.6502 6.6173 74.9302 6.80397C75.0982 6.91597 75.1822 7.0653 75.1822 7.25197L75.2382 10.332C75.2382 10.612 75.1262 10.752 74.9022 10.752C74.7715 10.752 74.6782 10.7146 74.6222 10.64C74.5662 10.5466 74.5195 10.4346 74.4822 10.304C74.1089 9.09064 73.7355 8.25064 73.3622 7.78397C72.9889 7.29864 72.5315 7.05597 71.9902 7.05597C71.5049 7.05597 71.1035 7.22397 70.7862 7.55997C70.4689 7.89597 70.3102 8.31597 70.3102 8.81997C70.3102 9.4733 70.5062 10.0426 70.8982 10.528C71.2902 11.0133 71.9995 11.6106 73.0262 12.32C73.9595 12.992 74.6595 13.72 75.1262 14.504C75.6115 15.2693 75.8542 16.1093 75.8542 17.024C75.8542 18.2186 75.4715 19.18 74.7062 19.908C73.9409 20.6173 72.9329 20.972 71.6822 20.972ZM80.4635 20.972C79.8102 20.972 79.2688 20.748 78.8395 20.3C78.4288 19.8333 78.2235 19.0773 78.2235 18.032V7.55997C78.2235 7.33597 78.1115 7.22397 77.8875 7.22397H77.0755C76.7768 7.22397 76.6275 7.11197 76.6275 6.88797C76.6275 6.73864 76.7115 6.60797 76.8795 6.49597C77.4955 6.06664 77.9902 5.6093 78.3635 5.12397C78.7368 4.61997 79.0635 3.93864 79.3435 3.07997C79.4742 2.68797 79.6328 2.49197 79.8195 2.49197C80.0248 2.49197 80.1275 2.6413 80.1275 2.93997V6.04797C80.1275 6.3093 80.2582 6.43997 80.5195 6.43997H82.3395C82.6382 6.43997 82.7875 6.57064 82.7875 6.83197C82.7875 7.0933 82.6382 7.22397 82.3395 7.22397H80.5195C80.2582 7.22397 80.1275 7.35464 80.1275 7.61597V18.06C80.1275 18.4706 80.1928 18.7973 80.3235 19.04C80.4542 19.264 80.6968 19.376 81.0515 19.376C81.4435 19.376 81.7608 19.18 82.0035 18.788C82.2648 18.396 82.4328 17.7613 82.5075 16.884C82.5448 16.6226 82.6662 16.492 82.8715 16.492C83.0955 16.492 83.2075 16.632 83.2075 16.912C83.1515 18.3493 82.8528 19.3853 82.3115 20.02C81.7888 20.6546 81.1728 20.972 80.4635 20.972ZM88.6896 20.972C87.7936 20.972 86.9909 20.6733 86.2816 20.076C85.5723 19.4786 85.0029 18.6386 84.5736 17.556C84.1629 16.4546 83.9576 15.1853 83.9576 13.748C83.9576 12.2733 84.1723 10.976 84.6016 9.85597C85.0309 8.73597 85.6189 7.85864 86.3656 7.22397C87.1123 6.5893 87.9429 6.27197 88.8576 6.27197C89.9589 6.27197 90.8456 6.7293 91.5176 7.64397C92.2083 8.53997 92.5536 10.0053 92.5536 12.04C92.5536 12.656 92.3203 12.964 91.8536 12.964H86.5336C86.1603 12.964 85.9736 13.1786 85.9736 13.608C85.9736 15.5866 86.2629 17.0706 86.8416 18.06C87.4203 19.0493 88.1576 19.544 89.0536 19.544C89.7629 19.544 90.3416 19.292 90.7896 18.788C91.2376 18.284 91.6016 17.4346 91.8816 16.24C91.9376 16.0346 92.0589 15.932 92.2456 15.932C92.4696 15.932 92.5536 16.1186 92.4976 16.492C92.1989 18.1533 91.7229 19.32 91.0696 19.992C90.4163 20.6453 89.6229 20.972 88.6896 20.972ZM86.4496 12.264H89.2776C90.1736 12.264 90.6216 11.7973 90.6216 10.864C90.6216 9.65064 90.4723 8.69864 90.1736 8.00797C89.8749 7.3173 89.4269 6.97197 88.8296 6.97197C88.1016 6.97197 87.4856 7.39197 86.9816 8.23197C86.4963 9.07197 86.1789 10.2666 86.0296 11.816C85.9923 12.1146 86.1323 12.264 86.4496 12.264ZM86.1416 4.31197C85.8243 4.44264 85.6096 4.4053 85.4976 4.19997C85.3669 3.99464 85.4509 3.7893 85.7496 3.58397L89.7816 0.44797C89.9683 0.298636 90.1456 0.186636 90.3136 0.111969C90.4816 0.0373033 90.6869 -2.95639e-05 90.9296 -2.95639e-05C91.2656 -2.95639e-05 91.5269 0.102637 91.7136 0.30797C91.9003 0.494636 91.9936 0.69997 91.9936 0.92397C91.9936 1.16664 91.9283 1.3813 91.7976 1.56797C91.6856 1.73597 91.4616 1.89464 91.1256 2.04397L86.1416 4.31197ZM97.1027 20.972C96.4494 20.972 95.908 20.748 95.4787 20.3C95.068 19.8333 94.8627 19.0773 94.8627 18.032V7.55997C94.8627 7.33597 94.7507 7.22397 94.5267 7.22397H93.7147C93.416 7.22397 93.2667 7.11197 93.2667 6.88797C93.2667 6.73864 93.3507 6.60797 93.5187 6.49597C94.1347 6.06664 94.6294 5.6093 95.0027 5.12397C95.376 4.61997 95.7027 3.93864 95.9827 3.07997C96.1134 2.68797 96.272 2.49197 96.4587 2.49197C96.664 2.49197 96.7667 2.6413 96.7667 2.93997V6.04797C96.7667 6.3093 96.8974 6.43997 97.1587 6.43997H98.9787C99.2774 6.43997 99.4267 6.57064 99.4267 6.83197C99.4267 7.0933 99.2774 7.22397 98.9787 7.22397H97.1587C96.8974 7.22397 96.7667 7.35464 96.7667 7.61597V18.06C96.7667 18.4706 96.832 18.7973 96.9627 19.04C97.0934 19.264 97.336 19.376 97.6907 19.376C98.0827 19.376 98.4 19.18 98.6427 18.788C98.904 18.396 99.072 17.7613 99.1467 16.884C99.184 16.6226 99.3054 16.492 99.5107 16.492C99.7347 16.492 99.8467 16.632 99.8467 16.912C99.7907 18.3493 99.492 19.3853 98.9507 20.02C98.428 20.6546 97.812 20.972 97.1027 20.972ZM103.145 3.77997C102.753 3.77997 102.417 3.63997 102.137 3.35997C101.875 3.07997 101.745 2.7253 101.745 2.29597C101.745 1.86664 101.875 1.5213 102.137 1.25997C102.417 0.97997 102.753 0.83997 103.145 0.83997C103.537 0.83997 103.863 0.97997 104.125 1.25997C104.386 1.5213 104.517 1.86664 104.517 2.29597C104.517 2.7253 104.386 3.07997 104.125 3.35997C103.863 3.63997 103.537 3.77997 103.145 3.77997ZM100.793 20.72C100.513 20.72 100.373 20.6173 100.373 20.412C100.373 20.244 100.494 20.132 100.737 20.076L101.073 20.02C101.539 19.9453 101.838 19.8333 101.969 19.684C102.099 19.516 102.165 19.236 102.165 18.844V9.43597C102.165 9.09997 102.109 8.87597 101.997 8.76397C101.903 8.6333 101.726 8.5493 101.465 8.51197L100.877 8.42797C100.634 8.4093 100.513 8.30664 100.513 8.11997C100.513 7.97064 100.662 7.86797 100.961 7.81197C101.539 7.71864 102.006 7.5693 102.361 7.36397C102.715 7.15864 103.061 6.90664 103.397 6.60797C103.565 6.43997 103.705 6.35597 103.817 6.35597C103.985 6.35597 104.069 6.46797 104.069 6.69197V18.844C104.069 19.236 104.125 19.516 104.237 19.684C104.349 19.852 104.563 19.9546 104.881 19.992L105.581 20.076C105.786 20.1133 105.889 20.216 105.889 20.384C105.889 20.608 105.749 20.72 105.469 20.72H100.793ZM110.947 20.972C110.126 20.972 109.379 20.7013 108.707 20.16C108.054 19.6 107.531 18.8066 107.139 17.78C106.747 16.7533 106.551 15.5306 106.551 14.112C106.551 12.5253 106.785 11.144 107.251 9.96797C107.737 8.79197 108.39 7.88664 109.211 7.25197C110.033 6.59864 110.947 6.27197 111.955 6.27197C112.814 6.27197 113.486 6.43997 113.971 6.77597C114.158 6.90664 114.251 7.11197 114.251 7.39197L114.307 10.808C114.307 11.088 114.195 11.228 113.971 11.228C113.766 11.228 113.635 11.1066 113.579 10.864C113.318 9.8373 113.066 9.04397 112.823 8.48397C112.581 7.92397 112.329 7.5413 112.067 7.33597C111.806 7.11197 111.517 6.99997 111.199 6.99997C110.826 6.99997 110.434 7.21464 110.023 7.64397C109.631 8.0733 109.295 8.7733 109.015 9.74397C108.754 10.696 108.623 11.956 108.623 13.524C108.623 15.5213 108.875 17.024 109.379 18.032C109.902 19.04 110.574 19.544 111.395 19.544C112.049 19.544 112.59 19.2733 113.019 18.732C113.467 18.1906 113.85 17.2106 114.167 15.792C114.223 15.5866 114.335 15.484 114.503 15.484C114.727 15.484 114.811 15.6706 114.755 16.044C114.55 17.3506 114.261 18.368 113.887 19.096C113.533 19.8053 113.103 20.3 112.599 20.58C112.114 20.8413 111.563 20.972 110.947 20.972ZM118.475 20.972C117.691 20.972 117.047 20.7293 116.543 20.244C116.039 19.74 115.787 19.0773 115.787 18.256C115.787 17.4533 116.039 16.6973 116.543 15.988C117.047 15.26 117.738 14.6066 118.615 14.028C119.493 13.4493 120.491 12.9826 121.611 12.628C121.854 12.5533 121.975 12.3946 121.975 12.152V9.60397C121.975 8.70797 121.835 8.0733 121.555 7.69997C121.275 7.30797 120.893 7.11197 120.407 7.11197C119.941 7.11197 119.511 7.32664 119.119 7.75597C118.746 8.16664 118.475 8.86664 118.307 9.85597C118.214 10.4533 118.009 10.892 117.691 11.172C117.393 11.4333 117.085 11.564 116.767 11.564C116.245 11.564 115.983 11.3026 115.983 10.78C115.983 10.2386 116.133 9.70664 116.431 9.18397C116.749 8.64264 117.159 8.1573 117.663 7.72797C118.167 7.27997 118.718 6.9253 119.315 6.66397C119.913 6.40264 120.51 6.27197 121.107 6.27197C122.955 6.27197 123.879 7.3453 123.879 9.49197V18.06C123.879 18.844 124.075 19.236 124.467 19.236C124.71 19.236 124.934 19.0773 125.139 18.76C125.345 18.424 125.447 17.864 125.447 17.08C125.447 16.7813 125.569 16.632 125.811 16.632C126.035 16.632 126.147 16.7906 126.147 17.108C126.147 18.4706 125.905 19.46 125.419 20.076C124.953 20.6733 124.421 20.972 123.823 20.972C123.375 20.972 123.021 20.7946 122.759 20.44C122.498 20.0666 122.321 19.628 122.227 19.124C122.209 18.9373 122.125 18.844 121.975 18.844C121.845 18.8253 121.714 18.9093 121.583 19.096C121.135 19.712 120.678 20.1786 120.211 20.496C119.745 20.8133 119.166 20.972 118.475 20.972ZM119.231 19.684C119.717 19.684 120.165 19.516 120.575 19.18C120.986 18.8253 121.322 18.3586 121.583 17.78C121.845 17.2013 121.975 16.548 121.975 15.82V13.776C121.975 13.4213 121.779 13.3186 121.387 13.468C120.249 13.8786 119.362 14.448 118.727 15.176C118.111 15.8853 117.803 16.744 117.803 17.752C117.803 19.04 118.279 19.684 119.231 19.684ZM131.449 20.72C131.169 20.72 131.029 20.6173 131.029 20.412C131.029 20.244 131.15 20.132 131.393 20.076L132.037 19.964C132.429 19.8893 132.681 19.7866 132.793 19.656C132.924 19.5253 132.989 19.264 132.989 18.872V2.40797C132.989 2.01597 132.924 1.75464 132.793 1.62397C132.681 1.4933 132.429 1.39064 132.037 1.31597L131.393 1.20397C131.15 1.14797 131.029 1.03597 131.029 0.867969C131.029 0.662636 131.169 0.55997 131.449 0.55997H136.517C136.797 0.55997 136.937 0.662636 136.937 0.867969C136.937 1.03597 136.816 1.14797 136.573 1.20397L135.929 1.31597C135.537 1.39064 135.276 1.4933 135.145 1.62397C135.033 1.75464 134.977 2.01597 134.977 2.40797V18.872C134.977 19.264 135.033 19.5253 135.145 19.656C135.276 19.7866 135.537 19.8893 135.929 19.964L136.573 20.076C136.816 20.132 136.937 20.244 136.937 20.412C136.937 20.6173 136.797 20.72 136.517 20.72H131.449ZM138.03 20.72C137.75 20.72 137.61 20.6173 137.61 20.412C137.61 20.244 137.731 20.132 137.974 20.076L138.31 20.02C138.702 19.9453 138.954 19.8333 139.066 19.684C139.196 19.516 139.262 19.236 139.262 18.844V9.43597C139.262 9.09997 139.206 8.87597 139.094 8.76397C139 8.6333 138.823 8.5493 138.562 8.51197L137.974 8.42797C137.731 8.4093 137.61 8.30664 137.61 8.11997C137.61 7.97064 137.759 7.86797 138.058 7.81197C138.636 7.71864 139.075 7.5693 139.374 7.36397C139.691 7.15864 140.018 6.90664 140.354 6.60797C140.522 6.43997 140.662 6.35597 140.774 6.35597C140.942 6.35597 141.026 6.46797 141.026 6.69197V7.95197C141.026 8.11997 141.082 8.23197 141.194 8.28797C141.324 8.3253 141.464 8.2693 141.614 8.11997C142.36 7.41064 143.014 6.9253 143.574 6.66397C144.152 6.40264 144.759 6.27197 145.394 6.27197C146.234 6.27197 146.906 6.57064 147.41 7.16797C147.914 7.74664 148.166 8.6053 148.166 9.74397V18.844C148.166 19.236 148.222 19.516 148.334 19.684C148.464 19.8333 148.726 19.936 149.118 19.992L149.734 20.076C149.939 20.1133 150.042 20.2253 150.042 20.412C150.042 20.6173 149.93 20.72 149.706 20.72H145.002C144.74 20.72 144.61 20.6173 144.61 20.412C144.61 20.2253 144.712 20.1133 144.918 20.076L145.31 20.02C145.702 19.964 145.954 19.852 146.066 19.684C146.196 19.516 146.262 19.236 146.262 18.844V10.052C146.262 9.1373 146.094 8.4933 145.758 8.11997C145.422 7.74664 144.946 7.55997 144.33 7.55997C143.732 7.55997 143.191 7.7373 142.706 8.09197C142.239 8.42797 141.866 8.8853 141.586 9.46397C141.306 10.024 141.166 10.6493 141.166 11.34V18.844C141.166 19.236 141.222 19.516 141.334 19.684C141.464 19.852 141.726 19.9546 142.118 19.992L142.874 20.076C143.079 20.1133 143.182 20.216 143.182 20.384C143.182 20.608 143.042 20.72 142.762 20.72H138.03ZM154.178 20.972C153.525 20.972 152.983 20.748 152.554 20.3C152.143 19.8333 151.938 19.0773 151.938 18.032V7.55997C151.938 7.33597 151.826 7.22397 151.602 7.22397H150.79C150.491 7.22397 150.342 7.11197 150.342 6.88797C150.342 6.73864 150.426 6.60797 150.594 6.49597C151.21 6.06664 151.705 5.6093 152.078 5.12397C152.451 4.61997 152.778 3.93864 153.058 3.07997C153.189 2.68797 153.347 2.49197 153.534 2.49197C153.739 2.49197 153.842 2.6413 153.842 2.93997V6.04797C153.842 6.3093 153.973 6.43997 154.234 6.43997H156.054C156.353 6.43997 156.502 6.57064 156.502 6.83197C156.502 7.0933 156.353 7.22397 156.054 7.22397H154.234C153.973 7.22397 153.842 7.35464 153.842 7.61597V18.06C153.842 18.4706 153.907 18.7973 154.038 19.04C154.169 19.264 154.411 19.376 154.766 19.376C155.158 19.376 155.475 19.18 155.718 18.788C155.979 18.396 156.147 17.7613 156.222 16.884C156.259 16.6226 156.381 16.492 156.586 16.492C156.81 16.492 156.922 16.632 156.922 16.912C156.866 18.3493 156.567 19.3853 156.026 20.02C155.503 20.6546 154.887 20.972 154.178 20.972ZM162.404 20.972C161.508 20.972 160.705 20.6733 159.996 20.076C159.287 19.4786 158.717 18.6386 158.288 17.556C157.877 16.4546 157.672 15.1853 157.672 13.748C157.672 12.2733 157.887 10.976 158.316 9.85597C158.745 8.73597 159.333 7.85864 160.08 7.22397C160.827 6.5893 161.657 6.27197 162.572 6.27197C163.673 6.27197 164.56 6.7293 165.232 7.64397C165.923 8.53997 166.268 10.0053 166.268 12.04C166.268 12.656 166.035 12.964 165.568 12.964H160.248C159.875 12.964 159.688 13.1786 159.688 13.608C159.688 15.5866 159.977 17.0706 160.556 18.06C161.135 19.0493 161.872 19.544 162.768 19.544C163.477 19.544 164.056 19.292 164.504 18.788C164.952 18.284 165.316 17.4346 165.596 16.24C165.652 16.0346 165.773 15.932 165.96 15.932C166.184 15.932 166.268 16.1186 166.212 16.492C165.913 18.1533 165.437 19.32 164.784 19.992C164.131 20.6453 163.337 20.972 162.404 20.972ZM160.164 12.264H162.992C163.888 12.264 164.336 11.7973 164.336 10.864C164.336 9.65064 164.187 8.69864 163.888 8.00797C163.589 7.3173 163.141 6.97197 162.544 6.97197C161.816 6.97197 161.2 7.39197 160.696 8.23197C160.211 9.07197 159.893 10.2666 159.744 11.816C159.707 12.1146 159.847 12.264 160.164 12.264ZM171.685 26.74C170.266 26.74 169.146 26.4506 168.325 25.872C167.504 25.312 167.093 24.6306 167.093 23.828C167.093 23.492 167.14 23.184 167.233 22.904C167.326 22.6426 167.522 22.3346 167.821 21.98C168.138 21.6253 168.614 21.168 169.249 20.608C169.473 20.4026 169.585 20.216 169.585 20.048C169.585 19.8613 169.473 19.7213 169.249 19.628C168.577 19.348 168.176 18.9933 168.045 18.564C167.914 18.116 168.073 17.7053 168.521 17.332L170.537 15.596C170.761 15.4093 170.752 15.2506 170.509 15.12C169.744 14.7466 169.137 14.168 168.689 13.384C168.241 12.6 168.017 11.76 168.017 10.864C168.017 10.0053 168.204 9.23064 168.577 8.53997C168.95 7.8493 169.454 7.29864 170.089 6.88797C170.724 6.4773 171.433 6.27197 172.217 6.27197C172.665 6.27197 173.094 6.34664 173.505 6.49597C173.766 6.5893 173.925 6.5053 173.981 6.24397C174.149 5.53464 174.457 4.98397 174.905 4.59197C175.372 4.1813 175.829 3.97597 176.277 3.97597C176.706 3.97597 177.052 4.10664 177.313 4.36797C177.593 4.61064 177.733 4.91864 177.733 5.29197C177.733 5.6093 177.64 5.8613 177.453 6.04797C177.266 6.23464 177.033 6.32797 176.753 6.32797C176.51 6.32797 176.333 6.2813 176.221 6.18797C176.109 6.09464 176.006 6.0013 175.913 5.90797C175.82 5.81464 175.67 5.76797 175.465 5.76797C175.017 5.76797 174.737 6.01064 174.625 6.49597C174.569 6.68264 174.569 6.8413 174.625 6.97197C174.7 7.10264 174.802 7.2333 174.933 7.36397C175.381 7.7933 175.726 8.31597 175.969 8.93197C176.23 9.54797 176.361 10.2293 176.361 10.976C176.361 11.872 176.174 12.6746 175.801 13.384C175.446 14.0933 174.952 14.6533 174.317 15.064C173.701 15.4746 173.001 15.68 172.217 15.68C171.881 15.68 171.592 15.7546 171.349 15.904C171.106 16.0346 170.864 16.2306 170.621 16.492L170.145 17.024C169.902 17.3226 169.828 17.612 169.921 17.892C170.033 18.1533 170.294 18.284 170.705 18.284H173.113C174.457 18.284 175.521 18.62 176.305 19.292C177.089 19.9453 177.481 20.8506 177.481 22.008C177.481 22.9226 177.22 23.7346 176.697 24.444C176.174 25.1533 175.474 25.7133 174.597 26.124C173.738 26.5346 172.768 26.74 171.685 26.74ZM172.189 14.98C172.861 14.98 173.393 14.616 173.785 13.888C174.177 13.16 174.373 12.1706 174.373 10.92C174.373 9.70664 174.168 8.73597 173.757 8.00797C173.365 7.2613 172.842 6.88797 172.189 6.88797C171.536 6.88797 171.004 7.2613 170.593 8.00797C170.201 8.73597 170.005 9.70664 170.005 10.92C170.005 12.1706 170.201 13.16 170.593 13.888C170.985 14.616 171.517 14.98 172.189 14.98ZM172.021 26.124C172.693 26.124 173.309 25.9746 173.869 25.676C174.429 25.3773 174.868 24.9573 175.185 24.416C175.521 23.8933 175.689 23.296 175.689 22.624C175.689 21.784 175.437 21.14 174.933 20.692C174.448 20.2253 173.757 19.992 172.861 19.992H172.217C171.638 19.992 171.2 20.048 170.901 20.16C170.621 20.272 170.35 20.468 170.089 20.748C169.51 21.364 169.146 21.8586 168.997 22.232C168.848 22.6053 168.773 22.988 168.773 23.38C168.773 24.2013 169.053 24.864 169.613 25.368C170.192 25.872 170.994 26.124 172.021 26.124ZM181.999 8.23197C182.764 6.9253 183.688 6.27197 184.771 6.27197C185.387 6.27197 185.844 6.45864 186.143 6.83197C186.441 7.18664 186.591 7.58797 186.591 8.03597C186.591 8.39064 186.497 8.67997 186.311 8.90397C186.143 9.12797 185.872 9.23997 185.499 9.23997C185.2 9.23997 184.976 9.17464 184.827 9.04397C184.696 8.89464 184.584 8.72664 184.491 8.53997C184.416 8.3533 184.323 8.19464 184.211 8.06397C184.099 7.91464 183.912 7.83997 183.651 7.83997C183.315 7.83997 182.997 8.0453 182.699 8.45597C182.4 8.84797 182.148 9.37997 181.943 10.052C181.756 10.724 181.663 11.4893 181.663 12.348V18.844C181.663 19.236 181.719 19.516 181.831 19.684C181.961 19.852 182.223 19.9546 182.615 19.992L183.371 20.076C183.576 20.1133 183.679 20.216 183.679 20.384C183.679 20.608 183.539 20.72 183.259 20.72H178.527C178.247 20.72 178.107 20.6173 178.107 20.412C178.107 20.244 178.228 20.132 178.471 20.076L178.807 20.02C179.199 19.9453 179.451 19.8333 179.563 19.684C179.693 19.516 179.759 19.236 179.759 18.844V9.43597C179.759 9.09997 179.703 8.87597 179.591 8.76397C179.497 8.6333 179.32 8.5493 179.059 8.51197L178.471 8.42797C178.228 8.4093 178.107 8.30664 178.107 8.11997C178.107 7.97064 178.256 7.86797 178.555 7.81197C179.133 7.71864 179.572 7.5693 179.871 7.36397C180.188 7.15864 180.515 6.90664 180.851 6.60797C181.019 6.43997 181.159 6.35597 181.271 6.35597C181.439 6.35597 181.523 6.46797 181.523 6.69197V8.20397C181.523 8.33464 181.579 8.41864 181.691 8.45597C181.803 8.47464 181.905 8.39997 181.999 8.23197ZM189.189 20.972C188.405 20.972 187.761 20.7293 187.257 20.244C186.753 19.74 186.501 19.0773 186.501 18.256C186.501 17.4533 186.753 16.6973 187.257 15.988C187.761 15.26 188.451 14.6066 189.329 14.028C190.206 13.4493 191.205 12.9826 192.325 12.628C192.567 12.5533 192.689 12.3946 192.689 12.152V9.60397C192.689 8.70797 192.549 8.0733 192.269 7.69997C191.989 7.30797 191.606 7.11197 191.121 7.11197C190.654 7.11197 190.225 7.32664 189.833 7.75597C189.459 8.16664 189.189 8.86664 189.021 9.85597C188.927 10.4533 188.722 10.892 188.405 11.172C188.106 11.4333 187.798 11.564 187.481 11.564C186.958 11.564 186.697 11.3026 186.697 10.78C186.697 10.2386 186.846 9.70664 187.145 9.18397C187.462 8.64264 187.873 8.1573 188.377 7.72797C188.881 7.27997 189.431 6.9253 190.029 6.66397C190.626 6.40264 191.223 6.27197 191.821 6.27197C193.669 6.27197 194.593 7.3453 194.593 9.49197V18.06C194.593 18.844 194.789 19.236 195.181 19.236C195.423 19.236 195.647 19.0773 195.853 18.76C196.058 18.424 196.161 17.864 196.161 17.08C196.161 16.7813 196.282 16.632 196.525 16.632C196.749 16.632 196.861 16.7906 196.861 17.108C196.861 18.4706 196.618 19.46 196.133 20.076C195.666 20.6733 195.134 20.972 194.537 20.972C194.089 20.972 193.734 20.7946 193.473 20.44C193.211 20.0666 193.034 19.628 192.941 19.124C192.922 18.9373 192.838 18.844 192.689 18.844C192.558 18.8253 192.427 18.9093 192.297 19.096C191.849 19.712 191.391 20.1786 190.925 20.496C190.458 20.8133 189.879 20.972 189.189 20.972ZM189.945 19.684C190.43 19.684 190.878 19.516 191.289 19.18C191.699 18.8253 192.035 18.3586 192.297 17.78C192.558 17.2013 192.689 16.548 192.689 15.82V13.776C192.689 13.4213 192.493 13.3186 192.101 13.468C190.962 13.8786 190.075 14.448 189.441 15.176C188.825 15.8853 188.517 16.744 188.517 17.752C188.517 19.04 188.993 19.684 189.945 19.684ZM200.684 20.972C200.031 20.972 199.489 20.748 199.06 20.3C198.649 19.8333 198.444 19.0773 198.444 18.032V7.55997C198.444 7.33597 198.332 7.22397 198.108 7.22397H197.296C196.997 7.22397 196.848 7.11197 196.848 6.88797C196.848 6.73864 196.932 6.60797 197.1 6.49597C197.716 6.06664 198.211 5.6093 198.584 5.12397C198.957 4.61997 199.284 3.93864 199.564 3.07997C199.695 2.68797 199.853 2.49197 200.04 2.49197C200.245 2.49197 200.348 2.6413 200.348 2.93997V6.04797C200.348 6.3093 200.479 6.43997 200.74 6.43997H202.56C202.859 6.43997 203.008 6.57064 203.008 6.83197C203.008 7.0933 202.859 7.22397 202.56 7.22397H200.74C200.479 7.22397 200.348 7.35464 200.348 7.61597V18.06C200.348 18.4706 200.413 18.7973 200.544 19.04C200.675 19.264 200.917 19.376 201.272 19.376C201.664 19.376 201.981 19.18 202.224 18.788C202.485 18.396 202.653 17.7613 202.728 16.884C202.765 16.6226 202.887 16.492 203.092 16.492C203.316 16.492 203.428 16.632 203.428 16.912C203.372 18.3493 203.073 19.3853 202.532 20.02C202.009 20.6546 201.393 20.972 200.684 20.972ZM206.726 3.77997C206.334 3.77997 205.998 3.63997 205.718 3.35997C205.457 3.07997 205.326 2.7253 205.326 2.29597C205.326 1.86664 205.457 1.5213 205.718 1.25997C205.998 0.97997 206.334 0.83997 206.726 0.83997C207.118 0.83997 207.445 0.97997 207.706 1.25997C207.968 1.5213 208.098 1.86664 208.098 2.29597C208.098 2.7253 207.968 3.07997 207.706 3.35997C207.445 3.63997 207.118 3.77997 206.726 3.77997ZM204.374 20.72C204.094 20.72 203.954 20.6173 203.954 20.412C203.954 20.244 204.076 20.132 204.318 20.076L204.654 20.02C205.121 19.9453 205.42 19.8333 205.55 19.684C205.681 19.516 205.746 19.236 205.746 18.844V9.43597C205.746 9.09997 205.69 8.87597 205.578 8.76397C205.485 8.6333 205.308 8.5493 205.046 8.51197L204.458 8.42797C204.216 8.4093 204.094 8.30664 204.094 8.11997C204.094 7.97064 204.244 7.86797 204.542 7.81197C205.121 7.71864 205.588 7.5693 205.942 7.36397C206.297 7.15864 206.642 6.90664 206.978 6.60797C207.146 6.43997 207.286 6.35597 207.398 6.35597C207.566 6.35597 207.65 6.46797 207.65 6.69197V18.844C207.65 19.236 207.706 19.516 207.818 19.684C207.93 19.852 208.145 19.9546 208.462 19.992L209.162 20.076C209.368 20.1133 209.47 20.216 209.47 20.384C209.47 20.608 209.33 20.72 209.05 20.72H204.374ZM214.921 20.972C214.753 20.972 214.631 20.8693 214.557 20.664L210.833 8.31597C210.702 7.86797 210.571 7.57864 210.441 7.44797C210.329 7.3173 210.142 7.22397 209.881 7.16797L209.461 7.08397C209.218 7.02797 209.097 6.90664 209.097 6.71997C209.097 6.5333 209.227 6.43997 209.489 6.43997H214.109C214.37 6.43997 214.501 6.5333 214.501 6.71997C214.501 6.9253 214.379 7.04664 214.137 7.08397L213.689 7.13997C213.241 7.19597 212.961 7.30797 212.849 7.47597C212.737 7.6253 212.737 7.9053 212.849 8.31597L215.173 16.408C215.229 16.6133 215.322 16.716 215.453 16.716C215.583 16.716 215.677 16.6133 215.733 16.408L218.001 8.81997C218.15 8.31597 218.187 7.94264 218.113 7.69997C218.057 7.43864 217.795 7.27064 217.329 7.19597L216.741 7.08397C216.498 7.02797 216.377 6.90664 216.377 6.71997C216.377 6.5333 216.507 6.43997 216.769 6.43997H220.325C220.586 6.43997 220.717 6.54264 220.717 6.74797C220.717 6.93464 220.605 7.0653 220.381 7.13997L220.129 7.22397C219.849 7.3173 219.606 7.4853 219.401 7.72797C219.214 7.97064 219.027 8.39064 218.841 8.98797L215.285 20.664C215.21 20.8693 215.089 20.972 214.921 20.972ZM223.233 20.972C222.449 20.972 221.805 20.7293 221.301 20.244C220.797 19.74 220.545 19.0773 220.545 18.256C220.545 17.4533 220.797 16.6973 221.301 15.988C221.805 15.26 222.495 14.6066 223.373 14.028C224.25 13.4493 225.249 12.9826 226.369 12.628C226.611 12.5533 226.733 12.3946 226.733 12.152V9.60397C226.733 8.70797 226.593 8.0733 226.313 7.69997C226.033 7.30797 225.65 7.11197 225.165 7.11197C224.698 7.11197 224.269 7.32664 223.877 7.75597C223.503 8.16664 223.233 8.86664 223.065 9.85597C222.971 10.4533 222.766 10.892 222.449 11.172C222.15 11.4333 221.842 11.564 221.525 11.564C221.002 11.564 220.741 11.3026 220.741 10.78C220.741 10.2386 220.89 9.70664 221.189 9.18397C221.506 8.64264 221.917 8.1573 222.421 7.72797C222.925 7.27997 223.475 6.9253 224.073 6.66397C224.67 6.40264 225.267 6.27197 225.865 6.27197C227.713 6.27197 228.637 7.3453 228.637 9.49197V18.06C228.637 18.844 228.833 19.236 229.225 19.236C229.467 19.236 229.691 19.0773 229.897 18.76C230.102 18.424 230.205 17.864 230.205 17.08C230.205 16.7813 230.326 16.632 230.569 16.632C230.793 16.632 230.905 16.7906 230.905 17.108C230.905 18.4706 230.662 19.46 230.177 20.076C229.71 20.6733 229.178 20.972 228.581 20.972C228.133 20.972 227.778 20.7946 227.517 20.44C227.255 20.0666 227.078 19.628 226.985 19.124C226.966 18.9373 226.882 18.844 226.733 18.844C226.602 18.8253 226.471 18.9093 226.341 19.096C225.893 19.712 225.435 20.1786 224.969 20.496C224.502 20.8133 223.923 20.972 223.233 20.972ZM223.989 19.684C224.474 19.684 224.922 19.516 225.333 19.18C225.743 18.8253 226.079 18.3586 226.341 17.78C226.602 17.2013 226.733 16.548 226.733 15.82V13.776C226.733 13.4213 226.537 13.3186 226.145 13.468C225.006 13.8786 224.119 14.448 223.485 15.176C222.869 15.8853 222.561 16.744 222.561 17.752C222.561 19.04 223.037 19.684 223.989 19.684ZM242.814 20.972C241.918 20.972 241.078 20.7106 240.294 20.188C239.51 19.6466 238.819 18.9093 238.222 17.976C237.643 17.0426 237.186 15.9506 236.85 14.7C236.533 13.4306 236.374 12.068 236.374 10.612C236.374 9.15597 236.533 7.80264 236.85 6.55197C237.186 5.3013 237.643 4.2093 238.222 3.27597C238.819 2.32397 239.51 1.58664 240.294 1.06397C241.078 0.541303 241.918 0.27997 242.814 0.27997C243.71 0.27997 244.541 0.541303 245.306 1.06397C246.09 1.58664 246.781 2.32397 247.378 3.27597C247.975 4.2093 248.433 5.3013 248.75 6.55197C249.086 7.80264 249.254 9.15597 249.254 10.612C249.254 12.068 249.086 13.4306 248.75 14.7C248.433 15.9506 247.975 17.0426 247.378 17.976C246.781 18.9093 246.09 19.6466 245.306 20.188C244.541 20.7106 243.71 20.972 242.814 20.972ZM242.814 20.216C244.139 20.216 245.175 19.4226 245.922 17.836C246.669 16.2493 247.042 13.8413 247.042 10.612C247.042 7.38264 246.669 4.98397 245.922 3.41597C245.175 1.8293 244.139 1.03597 242.814 1.03597C241.507 1.03597 240.471 1.8293 239.706 3.41597C238.959 4.98397 238.586 7.38264 238.586 10.612C238.586 13.8413 238.959 16.2493 239.706 17.836C240.471 19.4226 241.507 20.216 242.814 20.216ZM254.407 8.23197C255.172 6.9253 256.096 6.27197 257.179 6.27197C257.795 6.27197 258.252 6.45864 258.551 6.83197C258.85 7.18664 258.999 7.58797 258.999 8.03597C258.999 8.39064 258.906 8.67997 258.719 8.90397C258.551 9.12797 258.28 9.23997 257.907 9.23997C257.608 9.23997 257.384 9.17464 257.235 9.04397C257.104 8.89464 256.992 8.72664 256.899 8.53997C256.824 8.3533 256.731 8.19464 256.619 8.06397C256.507 7.91464 256.32 7.83997 256.059 7.83997C255.723 7.83997 255.406 8.0453 255.107 8.45597C254.808 8.84797 254.556 9.37997 254.351 10.052C254.164 10.724 254.071 11.4893 254.071 12.348V18.844C254.071 19.236 254.127 19.516 254.239 19.684C254.37 19.852 254.631 19.9546 255.023 19.992L255.779 20.076C255.984 20.1133 256.087 20.216 256.087 20.384C256.087 20.608 255.947 20.72 255.667 20.72H250.935C250.655 20.72 250.515 20.6173 250.515 20.412C250.515 20.244 250.636 20.132 250.879 20.076L251.215 20.02C251.607 19.9453 251.859 19.8333 251.971 19.684C252.102 19.516 252.167 19.236 252.167 18.844V9.43597C252.167 9.09997 252.111 8.87597 251.999 8.76397C251.906 8.6333 251.728 8.5493 251.467 8.51197L250.879 8.42797C250.636 8.4093 250.515 8.30664 250.515 8.11997C250.515 7.97064 250.664 7.86797 250.963 7.81197C251.542 7.71864 251.98 7.5693 252.279 7.36397C252.596 7.15864 252.923 6.90664 253.259 6.60797C253.427 6.43997 253.567 6.35597 253.679 6.35597C253.847 6.35597 253.931 6.46797 253.931 6.69197V8.20397C253.931 8.33464 253.987 8.41864 254.099 8.45597C254.211 8.47464 254.314 8.39997 254.407 8.23197ZM263.221 26.74C261.802 26.74 260.682 26.4506 259.861 25.872C259.04 25.312 258.629 24.6306 258.629 23.828C258.629 23.492 258.676 23.184 258.769 22.904C258.862 22.6426 259.058 22.3346 259.357 21.98C259.674 21.6253 260.15 21.168 260.785 20.608C261.009 20.4026 261.121 20.216 261.121 20.048C261.121 19.8613 261.009 19.7213 260.785 19.628C260.113 19.348 259.712 18.9933 259.581 18.564C259.45 18.116 259.609 17.7053 260.057 17.332L262.073 15.596C262.297 15.4093 262.288 15.2506 262.045 15.12C261.28 14.7466 260.673 14.168 260.225 13.384C259.777 12.6 259.553 11.76 259.553 10.864C259.553 10.0053 259.74 9.23064 260.113 8.53997C260.486 7.8493 260.99 7.29864 261.625 6.88797C262.26 6.4773 262.969 6.27197 263.753 6.27197C264.201 6.27197 264.63 6.34664 265.041 6.49597C265.302 6.5893 265.461 6.5053 265.517 6.24397C265.685 5.53464 265.993 4.98397 266.441 4.59197C266.908 4.1813 267.365 3.97597 267.813 3.97597C268.242 3.97597 268.588 4.10664 268.849 4.36797C269.129 4.61064 269.269 4.91864 269.269 5.29197C269.269 5.6093 269.176 5.8613 268.989 6.04797C268.802 6.23464 268.569 6.32797 268.289 6.32797C268.046 6.32797 267.869 6.2813 267.757 6.18797C267.645 6.09464 267.542 6.0013 267.449 5.90797C267.356 5.81464 267.206 5.76797 267.001 5.76797C266.553 5.76797 266.273 6.01064 266.161 6.49597C266.105 6.68264 266.105 6.8413 266.161 6.97197C266.236 7.10264 266.338 7.2333 266.469 7.36397C266.917 7.7933 267.262 8.31597 267.505 8.93197C267.766 9.54797 267.897 10.2293 267.897 10.976C267.897 11.872 267.71 12.6746 267.337 13.384C266.982 14.0933 266.488 14.6533 265.853 15.064C265.237 15.4746 264.537 15.68 263.753 15.68C263.417 15.68 263.128 15.7546 262.885 15.904C262.642 16.0346 262.4 16.2306 262.157 16.492L261.681 17.024C261.438 17.3226 261.364 17.612 261.457 17.892C261.569 18.1533 261.83 18.284 262.241 18.284H264.649C265.993 18.284 267.057 18.62 267.841 19.292C268.625 19.9453 269.017 20.8506 269.017 22.008C269.017 22.9226 268.756 23.7346 268.233 24.444C267.71 25.1533 267.01 25.7133 266.133 26.124C265.274 26.5346 264.304 26.74 263.221 26.74ZM263.725 14.98C264.397 14.98 264.929 14.616 265.321 13.888C265.713 13.16 265.909 12.1706 265.909 10.92C265.909 9.70664 265.704 8.73597 265.293 8.00797C264.901 7.2613 264.378 6.88797 263.725 6.88797C263.072 6.88797 262.54 7.2613 262.129 8.00797C261.737 8.73597 261.541 9.70664 261.541 10.92C261.541 12.1706 261.737 13.16 262.129 13.888C262.521 14.616 263.053 14.98 263.725 14.98ZM263.557 26.124C264.229 26.124 264.845 25.9746 265.405 25.676C265.965 25.3773 266.404 24.9573 266.721 24.416C267.057 23.8933 267.225 23.296 267.225 22.624C267.225 21.784 266.973 21.14 266.469 20.692C265.984 20.2253 265.293 19.992 264.397 19.992H263.753C263.174 19.992 262.736 20.048 262.437 20.16C262.157 20.272 261.886 20.468 261.625 20.748C261.046 21.364 260.682 21.8586 260.533 22.232C260.384 22.6053 260.309 22.988 260.309 23.38C260.309 24.2013 260.589 24.864 261.149 25.368C261.728 25.872 262.53 26.124 263.557 26.124ZM272.309 20.972C271.525 20.972 270.881 20.7293 270.377 20.244C269.873 19.74 269.621 19.0773 269.621 18.256C269.621 17.4533 269.873 16.6973 270.377 15.988C270.881 15.26 271.572 14.6066 272.449 14.028C273.327 13.4493 274.325 12.9826 275.445 12.628C275.688 12.5533 275.809 12.3946 275.809 12.152V9.60397C275.809 8.70797 275.669 8.0733 275.389 7.69997C275.109 7.30797 274.727 7.11197 274.241 7.11197C273.775 7.11197 273.345 7.32664 272.953 7.75597C272.58 8.16664 272.309 8.86664 272.141 9.85597C272.048 10.4533 271.843 10.892 271.525 11.172C271.227 11.4333 270.919 11.564 270.601 11.564C270.079 11.564 269.817 11.3026 269.817 10.78C269.817 10.2386 269.967 9.70664 270.265 9.18397C270.583 8.64264 270.993 8.1573 271.497 7.72797C272.001 7.27997 272.552 6.9253 273.149 6.66397C273.747 6.40264 274.344 6.27197 274.941 6.27197C276.789 6.27197 277.713 7.3453 277.713 9.49197V18.06C277.713 18.844 277.909 19.236 278.301 19.236C278.544 19.236 278.768 19.0773 278.973 18.76C279.179 18.424 279.281 17.864 279.281 17.08C279.281 16.7813 279.403 16.632 279.645 16.632C279.869 16.632 279.981 16.7906 279.981 17.108C279.981 18.4706 279.739 19.46 279.253 20.076C278.787 20.6733 278.255 20.972 277.657 20.972C277.209 20.972 276.855 20.7946 276.593 20.44C276.332 20.0666 276.155 19.628 276.061 19.124C276.043 18.9373 275.959 18.844 275.809 18.844C275.679 18.8253 275.548 18.9093 275.417 19.096C274.969 19.712 274.512 20.1786 274.045 20.496C273.579 20.8133 273 20.972 272.309 20.972ZM273.065 19.684C273.551 19.684 273.999 19.516 274.409 19.18C274.82 18.8253 275.156 18.3586 275.417 17.78C275.679 17.2013 275.809 16.548 275.809 15.82V13.776C275.809 13.4213 275.613 13.3186 275.221 13.468C274.083 13.8786 273.196 14.448 272.561 15.176C271.945 15.8853 271.637 16.744 271.637 17.752C271.637 19.04 272.113 19.684 273.065 19.684ZM270.797 4.31197C270.573 4.4613 270.387 4.44264 270.237 4.25597C270.107 4.10664 270.135 3.9293 270.321 3.72397L273.569 0.30797C273.775 0.102637 274.008 -2.95639e-05 274.269 -2.95639e-05H274.801C275.063 -2.95639e-05 275.296 0.102637 275.501 0.30797L278.749 3.72397C278.936 3.9293 278.964 4.10664 278.833 4.25597C278.721 4.44264 278.535 4.45197 278.273 4.28397L274.521 1.76397L270.797 4.31197ZM280.693 20.72C280.413 20.72 280.273 20.6173 280.273 20.412C280.273 20.244 280.394 20.132 280.637 20.076L280.973 20.02C281.365 19.9453 281.617 19.8333 281.729 19.684C281.859 19.516 281.925 19.236 281.925 18.844V9.43597C281.925 9.09997 281.869 8.87597 281.757 8.76397C281.663 8.6333 281.486 8.5493 281.225 8.51197L280.637 8.42797C280.394 8.4093 280.273 8.30664 280.273 8.11997C280.273 7.97064 280.422 7.86797 280.721 7.81197C281.299 7.71864 281.738 7.5693 282.037 7.36397C282.354 7.15864 282.681 6.90664 283.017 6.60797C283.185 6.43997 283.325 6.35597 283.437 6.35597C283.605 6.35597 283.689 6.46797 283.689 6.69197V7.95197C283.689 8.11997 283.745 8.23197 283.857 8.28797C283.987 8.3253 284.127 8.2693 284.277 8.11997C285.023 7.41064 285.677 6.9253 286.237 6.66397C286.815 6.40264 287.422 6.27197 288.057 6.27197C288.897 6.27197 289.569 6.57064 290.073 7.16797C290.577 7.74664 290.829 8.6053 290.829 9.74397V18.844C290.829 19.236 290.885 19.516 290.997 19.684C291.127 19.8333 291.389 19.936 291.781 19.992L292.397 20.076C292.602 20.1133 292.705 20.2253 292.705 20.412C292.705 20.6173 292.593 20.72 292.369 20.72H287.665C287.403 20.72 287.273 20.6173 287.273 20.412C287.273 20.2253 287.375 20.1133 287.581 20.076L287.973 20.02C288.365 19.964 288.617 19.852 288.729 19.684C288.859 19.516 288.925 19.236 288.925 18.844V10.052C288.925 9.1373 288.757 8.4933 288.421 8.11997C288.085 7.74664 287.609 7.55997 286.993 7.55997C286.395 7.55997 285.854 7.7373 285.369 8.09197C284.902 8.42797 284.529 8.8853 284.249 9.46397C283.969 10.024 283.829 10.6493 283.829 11.34V18.844C283.829 19.236 283.885 19.516 283.997 19.684C284.127 19.852 284.389 19.9546 284.781 19.992L285.537 20.076C285.742 20.1133 285.845 20.216 285.845 20.384C285.845 20.608 285.705 20.72 285.425 20.72H280.693ZM295.917 3.77997C295.525 3.77997 295.189 3.63997 294.909 3.35997C294.648 3.07997 294.517 2.7253 294.517 2.29597C294.517 1.86664 294.648 1.5213 294.909 1.25997C295.189 0.97997 295.525 0.83997 295.917 0.83997C296.309 0.83997 296.636 0.97997 296.897 1.25997C297.158 1.5213 297.289 1.86664 297.289 2.29597C297.289 2.7253 297.158 3.07997 296.897 3.35997C296.636 3.63997 296.309 3.77997 295.917 3.77997ZM293.565 20.72C293.285 20.72 293.145 20.6173 293.145 20.412C293.145 20.244 293.266 20.132 293.509 20.076L293.845 20.02C294.312 19.9453 294.61 19.8333 294.741 19.684C294.872 19.516 294.937 19.236 294.937 18.844V9.43597C294.937 9.09997 294.881 8.87597 294.769 8.76397C294.676 8.6333 294.498 8.5493 294.237 8.51197L293.649 8.42797C293.406 8.4093 293.285 8.30664 293.285 8.11997C293.285 7.97064 293.434 7.86797 293.733 7.81197C294.312 7.71864 294.778 7.5693 295.133 7.36397C295.488 7.15864 295.833 6.90664 296.169 6.60797C296.337 6.43997 296.477 6.35597 296.589 6.35597C296.757 6.35597 296.841 6.46797 296.841 6.69197V18.844C296.841 19.236 296.897 19.516 297.009 19.684C297.121 19.852 297.336 19.9546 297.653 19.992L298.353 20.076C298.558 20.1133 298.661 20.216 298.661 20.384C298.661 20.608 298.521 20.72 298.241 20.72H293.565ZM303.72 20.972C302.898 20.972 302.152 20.7013 301.48 20.16C300.826 19.6 300.304 18.8066 299.912 17.78C299.52 16.7533 299.324 15.5306 299.324 14.112C299.324 12.5253 299.557 11.144 300.024 9.96797C300.509 8.79197 301.162 7.88664 301.984 7.25197C302.805 6.59864 303.72 6.27197 304.728 6.27197C305.586 6.27197 306.258 6.43997 306.744 6.77597C306.93 6.90664 307.024 7.11197 307.024 7.39197L307.08 10.808C307.08 11.088 306.968 11.228 306.744 11.228C306.538 11.228 306.408 11.1066 306.352 10.864C306.09 9.8373 305.838 9.04397 305.596 8.48397C305.353 7.92397 305.101 7.5413 304.84 7.33597C304.578 7.11197 304.289 6.99997 303.972 6.99997C303.598 6.99997 303.206 7.21464 302.796 7.64397C302.404 8.0733 302.068 8.7733 301.788 9.74397C301.526 10.696 301.396 11.956 301.396 13.524C301.396 15.5213 301.648 17.024 302.152 18.032C302.674 19.04 303.346 19.544 304.168 19.544C304.821 19.544 305.362 19.2733 305.792 18.732C306.24 18.1906 306.622 17.2106 306.94 15.792C306.996 15.5866 307.108 15.484 307.276 15.484C307.5 15.484 307.584 15.6706 307.528 16.044C307.322 17.3506 307.033 18.368 306.66 19.096C306.305 19.8053 305.876 20.3 305.372 20.58C304.886 20.8413 304.336 20.972 303.72 20.972ZM311.248 20.972C310.464 20.972 309.82 20.7293 309.316 20.244C308.812 19.74 308.56 19.0773 308.56 18.256C308.56 17.4533 308.812 16.6973 309.316 15.988C309.82 15.26 310.51 14.6066 311.388 14.028C312.265 13.4493 313.264 12.9826 314.384 12.628C314.626 12.5533 314.748 12.3946 314.748 12.152V9.60397C314.748 8.70797 314.608 8.0733 314.328 7.69997C314.048 7.30797 313.665 7.11197 313.18 7.11197C312.713 7.11197 312.284 7.32664 311.892 7.75597C311.518 8.16664 311.248 8.86664 311.08 9.85597C310.986 10.4533 310.781 10.892 310.464 11.172C310.165 11.4333 309.857 11.564 309.54 11.564C309.017 11.564 308.756 11.3026 308.756 10.78C308.756 10.2386 308.905 9.70664 309.204 9.18397C309.521 8.64264 309.932 8.1573 310.436 7.72797C310.94 7.27997 311.49 6.9253 312.088 6.66397C312.685 6.40264 313.282 6.27197 313.88 6.27197C315.728 6.27197 316.652 7.3453 316.652 9.49197V18.06C316.652 18.844 316.848 19.236 317.24 19.236C317.482 19.236 317.706 19.0773 317.912 18.76C318.117 18.424 318.22 17.864 318.22 17.08C318.22 16.7813 318.341 16.632 318.584 16.632C318.808 16.632 318.92 16.7906 318.92 17.108C318.92 18.4706 318.677 19.46 318.192 20.076C317.725 20.6733 317.193 20.972 316.596 20.972C316.148 20.972 315.793 20.7946 315.532 20.44C315.27 20.0666 315.093 19.628 315 19.124C314.981 18.9373 314.897 18.844 314.748 18.844C314.617 18.8253 314.486 18.9093 314.356 19.096C313.908 19.712 313.45 20.1786 312.984 20.496C312.517 20.8133 311.938 20.972 311.248 20.972ZM312.004 19.684C312.489 19.684 312.937 19.516 313.348 19.18C313.758 18.8253 314.094 18.3586 314.356 17.78C314.617 17.2013 314.748 16.548 314.748 15.82V13.776C314.748 13.4213 314.552 13.3186 314.16 13.468C313.021 13.8786 312.134 14.448 311.5 15.176C310.884 15.8853 310.576 16.744 310.576 17.752C310.576 19.04 311.052 19.684 312.004 19.684ZM321.787 20.972C321.377 20.972 321.022 20.8413 320.723 20.58C320.443 20.3 320.303 19.936 320.303 19.488C320.303 19.0586 320.443 18.7133 320.723 18.452C321.022 18.172 321.377 18.032 321.787 18.032C322.161 18.032 322.497 18.172 322.795 18.452C323.094 18.7133 323.243 19.0586 323.243 19.488C323.243 19.936 323.094 20.3 322.795 20.58C322.497 20.8413 322.161 20.972 321.787 20.972Z" fill="#E0F2D0"/>
</svg>
