<svg width="319" height="27" viewBox="0 0 319 27" fill="none" xmlns="http://www.w3.org/2000/svg">
<path d="M7.02811 20.972C5.51611 20.972 4.23745 20.5426 3.19211 19.684C2.14678 18.8253 1.35345 17.6213 0.812112 16.072C0.270778 14.504 0.000111774 12.656 0.000111774 10.528C0.000111774 8.47464 0.317445 6.68264 0.952112 5.15197C1.58678 3.60264 2.45478 2.40797 3.55611 1.56797C4.67611 0.709304 5.95478 0.27997 7.39211 0.27997C8.12011 0.27997 8.78278 0.354636 9.38011 0.503969C9.97745 0.634636 10.5001 0.81197 10.9481 1.03597C11.1908 1.16664 11.3121 1.36264 11.3121 1.62397L11.3961 5.87997C11.3961 6.1973 11.2841 6.35597 11.0601 6.35597C10.8548 6.35597 10.7241 6.23464 10.6681 5.99197L10.4441 5.15197C10.0334 3.60264 9.56678 2.53864 9.04411 1.95997C8.52145 1.3813 7.80278 1.09197 6.88811 1.09197C5.52545 1.09197 4.39611 1.90397 3.50011 3.52797C2.62278 5.1333 2.18411 7.46664 2.18411 10.528C2.18411 13.6826 2.63211 16.0906 3.52811 17.752C4.44278 19.3946 5.60945 20.216 7.02811 20.216C7.79345 20.216 8.37211 20.048 8.76411 19.712C9.15611 19.376 9.35211 18.7506 9.35211 17.836V11.704C9.35211 11.312 9.28678 11.0413 9.15611 10.892C9.04411 10.7426 8.79211 10.6493 8.40011 10.612L7.30811 10.5C7.06545 10.4813 6.94411 10.3693 6.94411 10.164C6.94411 9.95864 7.08411 9.85597 7.36411 9.85597H12.4881C12.7681 9.85597 12.9081 9.96797 12.9081 10.192C12.9081 10.36 12.8054 10.4626 12.6001 10.5L12.1801 10.556C11.7694 10.612 11.5268 10.724 11.4521 10.892C11.3774 11.06 11.3401 11.34 11.3401 11.732V19.32C11.3401 19.5253 11.2841 19.6933 11.1721 19.824C11.0601 19.936 10.8641 20.0666 10.5841 20.216C10.1361 20.44 9.62278 20.6173 9.04411 20.748C8.46545 20.8973 7.79345 20.972 7.02811 20.972ZM17.5137 8.23197C18.279 6.9253 19.203 6.27197 20.2857 6.27197C20.9017 6.27197 21.359 6.45864 21.6577 6.83197C21.9563 7.18664 22.1057 7.58797 22.1057 8.03597C22.1057 8.39064 22.0123 8.67997 21.8257 8.90397C21.6577 9.12797 21.387 9.23997 21.0137 9.23997C20.715 9.23997 20.491 9.17464 20.3417 9.04397C20.211 8.89464 20.099 8.72664 20.0057 8.53997C19.931 8.3533 19.8377 8.19464 19.7257 8.06397C19.6137 7.91464 19.427 7.83997 19.1657 7.83997C18.8297 7.83997 18.5123 8.0453 18.2137 8.45597C17.915 8.84797 17.663 9.37997 17.4577 10.052C17.271 10.724 17.1777 11.4893 17.1777 12.348V18.844C17.1777 19.236 17.2337 19.516 17.3457 19.684C17.4763 19.852 17.7377 19.9546 18.1297 19.992L18.8857 20.076C19.091 20.1133 19.1937 20.216 19.1937 20.384C19.1937 20.608 19.0537 20.72 18.7737 20.72H14.0417C13.7617 20.72 13.6217 20.6173 13.6217 20.412C13.6217 20.244 13.743 20.132 13.9857 20.076L14.3217 20.02C14.7137 19.9453 14.9657 19.8333 15.0777 19.684C15.2083 19.516 15.2737 19.236 15.2737 18.844V9.43597C15.2737 9.09997 15.2177 8.87597 15.1057 8.76397C15.0123 8.6333 14.835 8.5493 14.5737 8.51197L13.9857 8.42797C13.743 8.4093 13.6217 8.30664 13.6217 8.11997C13.6217 7.97064 13.771 7.86797 14.0697 7.81197C14.6483 7.71864 15.087 7.5693 15.3857 7.36397C15.703 7.15864 16.0297 6.90664 16.3657 6.60797C16.5337 6.43997 16.6737 6.35597 16.7857 6.35597C16.9537 6.35597 17.0377 6.46797 17.0377 6.69197V8.20397C17.0377 8.33464 17.0937 8.41864 17.2057 8.45597C17.3177 8.47464 17.4203 8.39997 17.5137 8.23197ZM24.7035 20.972C23.9195 20.972 23.2755 20.7293 22.7715 20.244C22.2675 19.74 22.0155 19.0773 22.0155 18.256C22.0155 17.4533 22.2675 16.6973 22.7715 15.988C23.2755 15.26 23.9662 14.6066 24.8435 14.028C25.7209 13.4493 26.7195 12.9826 27.8395 12.628C28.0822 12.5533 28.2035 12.3946 28.2035 12.152V9.60397C28.2035 8.70797 28.0635 8.0733 27.7835 7.69997C27.5035 7.30797 27.1209 7.11197 26.6356 7.11197C26.1689 7.11197 25.7395 7.32664 25.3475 7.75597C24.9742 8.16664 24.7035 8.86664 24.5355 9.85597C24.4422 10.4533 24.2369 10.892 23.9195 11.172C23.6209 11.4333 23.3129 11.564 22.9955 11.564C22.4729 11.564 22.2115 11.3026 22.2115 10.78C22.2115 10.2386 22.3609 9.70664 22.6595 9.18397C22.9769 8.64264 23.3875 8.1573 23.8915 7.72797C24.3955 7.27997 24.9462 6.9253 25.5435 6.66397C26.1409 6.40264 26.7382 6.27197 27.3356 6.27197C29.1836 6.27197 30.1076 7.3453 30.1076 9.49197V18.06C30.1076 18.844 30.3036 19.236 30.6956 19.236C30.9382 19.236 31.1622 19.0773 31.3676 18.76C31.5729 18.424 31.6756 17.864 31.6756 17.08C31.6756 16.7813 31.7969 16.632 32.0396 16.632C32.2636 16.632 32.3756 16.7906 32.3756 17.108C32.3756 18.4706 32.1329 19.46 31.6476 20.076C31.1809 20.6733 30.6489 20.972 30.0516 20.972C29.6035 20.972 29.2489 20.7946 28.9875 20.44C28.7262 20.0666 28.5489 19.628 28.4555 19.124C28.4369 18.9373 28.3529 18.844 28.2035 18.844C28.0729 18.8253 27.9422 18.9093 27.8115 19.096C27.3636 19.712 26.9062 20.1786 26.4396 20.496C25.9729 20.8133 25.3942 20.972 24.7035 20.972ZM25.4595 19.684C25.9449 19.684 26.3929 19.516 26.8035 19.18C27.2142 18.8253 27.5502 18.3586 27.8115 17.78C28.0729 17.2013 28.2035 16.548 28.2035 15.82V13.776C28.2035 13.4213 28.0075 13.3186 27.6155 13.468C26.4769 13.8786 25.5902 14.448 24.9555 15.176C24.3395 15.8853 24.0315 16.744 24.0315 17.752C24.0315 19.04 24.5075 19.684 25.4595 19.684ZM37.2871 20.972C36.4658 20.972 35.7191 20.7013 35.0471 20.16C34.3938 19.6 33.8711 18.8066 33.4791 17.78C33.0871 16.7533 32.8911 15.5306 32.8911 14.112C32.8911 12.5253 33.1245 11.144 33.5911 9.96797C34.0765 8.79197 34.7298 7.88664 35.5511 7.25197C36.3725 6.59864 37.2871 6.27197 38.2951 6.27197C39.1538 6.27197 39.8258 6.43997 40.3111 6.77597C40.4978 6.90664 40.5911 7.11197 40.5911 7.39197L40.6471 10.808C40.6471 11.088 40.5351 11.228 40.3111 11.228C40.1058 11.228 39.9751 11.1066 39.9191 10.864C39.6578 9.8373 39.4058 9.04397 39.1631 8.48397C38.9205 7.92397 38.6685 7.5413 38.4071 7.33597C38.1458 7.11197 37.8565 6.99997 37.5391 6.99997C37.1658 6.99997 36.7738 7.21464 36.3631 7.64397C35.9711 8.0733 35.6351 8.7733 35.3551 9.74397C35.0938 10.696 34.9631 11.956 34.9631 13.524C34.9631 15.5213 35.2151 17.024 35.7191 18.032C36.2418 19.04 36.9138 19.544 37.7351 19.544C38.3885 19.544 38.9298 19.2733 39.3591 18.732C39.8071 18.1906 40.1898 17.2106 40.5071 15.792C40.5631 15.5866 40.6751 15.484 40.8431 15.484C41.0671 15.484 41.1511 15.6706 41.0951 16.044C40.8898 17.3506 40.6005 18.368 40.2271 19.096C39.8725 19.8053 39.4431 20.3 38.9391 20.58C38.4538 20.8413 37.9031 20.972 37.2871 20.972ZM46.8314 20.972C45.9354 20.972 45.1328 20.6733 44.4234 20.076C43.7141 19.4786 43.1448 18.6386 42.7154 17.556C42.3048 16.4546 42.0994 15.1853 42.0994 13.748C42.0994 12.2733 42.3141 10.976 42.7434 9.85597C43.1728 8.73597 43.7608 7.85864 44.5074 7.22397C45.2541 6.5893 46.0848 6.27197 46.9994 6.27197C48.1008 6.27197 48.9874 6.7293 49.6594 7.64397C50.3501 8.53997 50.6954 10.0053 50.6954 12.04C50.6954 12.656 50.4621 12.964 49.9954 12.964H44.6754C44.3021 12.964 44.1154 13.1786 44.1154 13.608C44.1154 15.5866 44.4048 17.0706 44.9834 18.06C45.5621 19.0493 46.2994 19.544 47.1954 19.544C47.9048 19.544 48.4834 19.292 48.9314 18.788C49.3794 18.284 49.7434 17.4346 50.0234 16.24C50.0794 16.0346 50.2008 15.932 50.3874 15.932C50.6114 15.932 50.6954 16.1186 50.6394 16.492C50.3408 18.1533 49.8648 19.32 49.2114 19.992C48.5581 20.6453 47.7648 20.972 46.8314 20.972ZM44.5914 12.264H47.4194C48.3154 12.264 48.7634 11.7973 48.7634 10.864C48.7634 9.65064 48.6141 8.69864 48.3154 8.00797C48.0168 7.3173 47.5688 6.97197 46.9714 6.97197C46.2434 6.97197 45.6274 7.39197 45.1234 8.23197C44.6381 9.07197 44.3208 10.2666 44.1714 11.816C44.1341 12.1146 44.2741 12.264 44.5914 12.264ZM56.5584 20.72C56.2784 20.72 56.1384 20.6173 56.1384 20.412C56.1384 20.244 56.2597 20.132 56.5024 20.076L57.1464 19.964C57.5384 19.8893 57.7904 19.7866 57.9024 19.656C58.033 19.5253 58.0984 19.264 58.0984 18.872V2.40797C58.0984 2.01597 58.033 1.75464 57.9024 1.62397C57.7904 1.4933 57.5384 1.39064 57.1464 1.31597L56.5024 1.20397C56.2597 1.14797 56.1384 1.03597 56.1384 0.867969C56.1384 0.662636 56.2784 0.55997 56.5584 0.55997H65.9664C66.3957 0.55997 66.629 0.774637 66.6664 1.20397L66.8904 5.85197C66.9277 6.1693 66.8064 6.32797 66.5264 6.32797C66.3024 6.32797 66.1717 6.20664 66.1344 5.96397L65.9664 4.92797C65.761 3.65864 65.341 2.73464 64.7064 2.15597C64.0717 1.55864 63.1944 1.25997 62.0744 1.25997C61.3277 1.25997 60.805 1.37197 60.5064 1.59597C60.2264 1.8013 60.0864 2.17464 60.0864 2.71597V9.46397C60.0864 9.7253 60.217 9.85597 60.4784 9.85597H61.8784C62.6997 9.85597 63.2037 9.4173 63.3904 8.53997L63.6704 7.13997C63.745 6.85997 63.9037 6.73864 64.1464 6.77597C64.3517 6.8133 64.4544 6.97197 64.4544 7.25197V13.552C64.4544 13.832 64.3517 13.9906 64.1464 14.028C63.9037 14.0653 63.745 13.944 63.6704 13.664L63.3904 12.292C63.2597 11.6386 63.073 11.2093 62.8304 11.004C62.6064 10.7986 62.2797 10.696 61.8504 10.696H60.4784C60.217 10.696 60.0864 10.8266 60.0864 11.088V18.116C60.0864 18.788 60.2544 19.2733 60.5904 19.572C60.945 19.8706 61.5797 20.02 62.4944 20.02C63.4277 20.02 64.221 19.7866 64.8744 19.32C65.5464 18.8346 66.013 17.9386 66.2744 16.632L66.6104 14.98C66.6664 14.7373 66.8064 14.616 67.0304 14.616C67.2917 14.616 67.4037 14.7746 67.3664 15.092L67.0864 20.076C67.049 20.5053 66.8157 20.72 66.3864 20.72H56.5584ZM71.6819 20.972C71.2525 20.972 70.7952 20.916 70.3099 20.804C69.8245 20.7106 69.4325 20.5893 69.1339 20.44C68.9659 20.3466 68.8819 20.188 68.8819 19.964L68.7979 16.828C68.7979 16.5106 68.9192 16.352 69.1619 16.352C69.3672 16.352 69.5072 16.5013 69.5819 16.8C69.8992 18.1253 70.2819 19.0306 70.7299 19.516C71.1965 20.0013 71.7565 20.244 72.4099 20.244C72.9512 20.244 73.3992 20.0386 73.7539 19.628C74.1085 19.1986 74.2859 18.6106 74.2859 17.864C74.2859 17.1173 74.0805 16.4546 73.6699 15.876C73.2592 15.2973 72.5685 14.6626 71.5979 13.972C70.6272 13.3186 69.9179 12.6653 69.4699 12.012C69.0219 11.34 68.7979 10.612 68.7979 9.82797C68.7979 8.76397 69.1712 7.9053 69.9179 7.25197C70.6645 6.59864 71.6539 6.27197 72.8859 6.27197C73.2592 6.27197 73.6232 6.31864 73.9779 6.41197C74.3325 6.48664 74.6499 6.6173 74.9299 6.80397C75.0979 6.91597 75.1819 7.0653 75.1819 7.25197L75.2379 10.332C75.2379 10.612 75.1259 10.752 74.9019 10.752C74.7712 10.752 74.6779 10.7146 74.6219 10.64C74.5659 10.5466 74.5192 10.4346 74.4819 10.304C74.1085 9.09064 73.7352 8.25064 73.3619 7.78397C72.9885 7.29864 72.5312 7.05597 71.9899 7.05597C71.5045 7.05597 71.1032 7.22397 70.7859 7.55997C70.4685 7.89597 70.3099 8.31597 70.3099 8.81997C70.3099 9.4733 70.5059 10.0426 70.8979 10.528C71.2899 11.0133 71.9992 11.6106 73.0259 12.32C73.9592 12.992 74.6592 13.72 75.1259 14.504C75.6112 15.2693 75.8539 16.1093 75.8539 17.024C75.8539 18.2186 75.4712 19.18 74.7059 19.908C73.9405 20.6173 72.9325 20.972 71.6819 20.972ZM80.4631 20.972C79.8098 20.972 79.2685 20.748 78.8391 20.3C78.4285 19.8333 78.2231 19.0773 78.2231 18.032V7.55997C78.2231 7.33597 78.1111 7.22397 77.8871 7.22397H77.0751C76.7765 7.22397 76.6271 7.11197 76.6271 6.88797C76.6271 6.73864 76.7111 6.60797 76.8791 6.49597C77.4951 6.06664 77.9898 5.6093 78.3631 5.12397C78.7365 4.61997 79.0631 3.93864 79.3431 3.07997C79.4738 2.68797 79.6325 2.49197 79.8191 2.49197C80.0245 2.49197 80.1271 2.6413 80.1271 2.93997V6.04797C80.1271 6.3093 80.2578 6.43997 80.5191 6.43997H82.3391C82.6378 6.43997 82.7871 6.57064 82.7871 6.83197C82.7871 7.0933 82.6378 7.22397 82.3391 7.22397H80.5191C80.2578 7.22397 80.1271 7.35464 80.1271 7.61597V18.06C80.1271 18.4706 80.1925 18.7973 80.3231 19.04C80.4538 19.264 80.6965 19.376 81.0511 19.376C81.4431 19.376 81.7605 19.18 82.0031 18.788C82.2645 18.396 82.4325 17.7613 82.5071 16.884C82.5445 16.6226 82.6658 16.492 82.8711 16.492C83.0951 16.492 83.2071 16.632 83.2071 16.912C83.1511 18.3493 82.8525 19.3853 82.3111 20.02C81.7885 20.6546 81.1725 20.972 80.4631 20.972ZM88.6892 20.972C87.7932 20.972 86.9906 20.6733 86.2812 20.076C85.5719 19.4786 85.0026 18.6386 84.5732 17.556C84.1626 16.4546 83.9572 15.1853 83.9572 13.748C83.9572 12.2733 84.1719 10.976 84.6012 9.85597C85.0306 8.73597 85.6186 7.85864 86.3652 7.22397C87.1119 6.5893 87.9426 6.27197 88.8572 6.27197C89.9586 6.27197 90.8452 6.7293 91.5172 7.64397C92.2079 8.53997 92.5532 10.0053 92.5532 12.04C92.5532 12.656 92.3199 12.964 91.8532 12.964H86.5332C86.1599 12.964 85.9732 13.1786 85.9732 13.608C85.9732 15.5866 86.2626 17.0706 86.8412 18.06C87.4199 19.0493 88.1572 19.544 89.0532 19.544C89.7626 19.544 90.3412 19.292 90.7892 18.788C91.2372 18.284 91.6012 17.4346 91.8812 16.24C91.9372 16.0346 92.0586 15.932 92.2452 15.932C92.4692 15.932 92.5532 16.1186 92.4972 16.492C92.1986 18.1533 91.7226 19.32 91.0692 19.992C90.4159 20.6453 89.6226 20.972 88.6892 20.972ZM86.4492 12.264H89.2772C90.1732 12.264 90.6212 11.7973 90.6212 10.864C90.6212 9.65064 90.4719 8.69864 90.1732 8.00797C89.8746 7.3173 89.4266 6.97197 88.8292 6.97197C88.1012 6.97197 87.4852 7.39197 86.9812 8.23197C86.4959 9.07197 86.1786 10.2666 86.0292 11.816C85.9919 12.1146 86.1319 12.264 86.4492 12.264ZM86.1412 4.31197C85.8239 4.44264 85.6092 4.4053 85.4972 4.19997C85.3666 3.99464 85.4506 3.7893 85.7492 3.58397L89.7812 0.44797C89.9679 0.298636 90.1452 0.186636 90.3132 0.111969C90.4812 0.0373033 90.6866 -2.95639e-05 90.9292 -2.95639e-05C91.2652 -2.95639e-05 91.5266 0.102637 91.7132 0.30797C91.8999 0.494636 91.9932 0.69997 91.9932 0.92397C91.9932 1.16664 91.9279 1.3813 91.7972 1.56797C91.6852 1.73597 91.4612 1.89464 91.1252 2.04397L86.1412 4.31197ZM97.1024 20.972C96.449 20.972 95.9077 20.748 95.4784 20.3C95.0677 19.8333 94.8624 19.0773 94.8624 18.032V7.55997C94.8624 7.33597 94.7504 7.22397 94.5264 7.22397H93.7144C93.4157 7.22397 93.2664 7.11197 93.2664 6.88797C93.2664 6.73864 93.3504 6.60797 93.5184 6.49597C94.1344 6.06664 94.629 5.6093 95.0024 5.12397C95.3757 4.61997 95.7024 3.93864 95.9824 3.07997C96.113 2.68797 96.2717 2.49197 96.4584 2.49197C96.6637 2.49197 96.7664 2.6413 96.7664 2.93997V6.04797C96.7664 6.3093 96.897 6.43997 97.1584 6.43997H98.9784C99.277 6.43997 99.4264 6.57064 99.4264 6.83197C99.4264 7.0933 99.277 7.22397 98.9784 7.22397H97.1584C96.897 7.22397 96.7664 7.35464 96.7664 7.61597V18.06C96.7664 18.4706 96.8317 18.7973 96.9624 19.04C97.093 19.264 97.3357 19.376 97.6904 19.376C98.0824 19.376 98.3997 19.18 98.6424 18.788C98.9037 18.396 99.0717 17.7613 99.1464 16.884C99.1837 16.6226 99.305 16.492 99.5104 16.492C99.7344 16.492 99.8464 16.632 99.8464 16.912C99.7904 18.3493 99.4917 19.3853 98.9504 20.02C98.4277 20.6546 97.8117 20.972 97.1024 20.972ZM103.144 3.77997C102.752 3.77997 102.416 3.63997 102.136 3.35997C101.875 3.07997 101.744 2.7253 101.744 2.29597C101.744 1.86664 101.875 1.5213 102.136 1.25997C102.416 0.97997 102.752 0.83997 103.144 0.83997C103.536 0.83997 103.863 0.97997 104.124 1.25997C104.386 1.5213 104.516 1.86664 104.516 2.29597C104.516 2.7253 104.386 3.07997 104.124 3.35997C103.863 3.63997 103.536 3.77997 103.144 3.77997ZM100.792 20.72C100.512 20.72 100.372 20.6173 100.372 20.412C100.372 20.244 100.494 20.132 100.736 20.076L101.072 20.02C101.539 19.9453 101.838 19.8333 101.968 19.684C102.099 19.516 102.164 19.236 102.164 18.844V9.43597C102.164 9.09997 102.108 8.87597 101.996 8.76397C101.903 8.6333 101.726 8.5493 101.464 8.51197L100.876 8.42797C100.634 8.4093 100.512 8.30664 100.512 8.11997C100.512 7.97064 100.662 7.86797 100.96 7.81197C101.539 7.71864 102.006 7.5693 102.36 7.36397C102.715 7.15864 103.06 6.90664 103.396 6.60797C103.564 6.43997 103.704 6.35597 103.816 6.35597C103.984 6.35597 104.068 6.46797 104.068 6.69197V18.844C104.068 19.236 104.124 19.516 104.236 19.684C104.348 19.852 104.563 19.9546 104.88 19.992L105.58 20.076C105.786 20.1133 105.888 20.216 105.888 20.384C105.888 20.608 105.748 20.72 105.468 20.72H100.792ZM110.947 20.972C110.125 20.972 109.379 20.7013 108.707 20.16C108.053 19.6 107.531 18.8066 107.139 17.78C106.747 16.7533 106.551 15.5306 106.551 14.112C106.551 12.5253 106.784 11.144 107.251 9.96797C107.736 8.79197 108.389 7.88664 109.211 7.25197C110.032 6.59864 110.947 6.27197 111.955 6.27197C112.813 6.27197 113.485 6.43997 113.971 6.77597C114.157 6.90664 114.251 7.11197 114.251 7.39197L114.307 10.808C114.307 11.088 114.195 11.228 113.971 11.228C113.765 11.228 113.635 11.1066 113.579 10.864C113.317 9.8373 113.065 9.04397 112.823 8.48397C112.58 7.92397 112.328 7.5413 112.067 7.33597C111.805 7.11197 111.516 6.99997 111.199 6.99997C110.825 6.99997 110.433 7.21464 110.023 7.64397C109.631 8.0733 109.295 8.7733 109.015 9.74397C108.753 10.696 108.623 11.956 108.623 13.524C108.623 15.5213 108.875 17.024 109.379 18.032C109.901 19.04 110.573 19.544 111.395 19.544C112.048 19.544 112.589 19.2733 113.019 18.732C113.467 18.1906 113.849 17.2106 114.167 15.792C114.223 15.5866 114.335 15.484 114.503 15.484C114.727 15.484 114.811 15.6706 114.755 16.044C114.549 17.3506 114.26 18.368 113.887 19.096C113.532 19.8053 113.103 20.3 112.599 20.58C112.113 20.8413 111.563 20.972 110.947 20.972ZM118.475 20.972C117.691 20.972 117.047 20.7293 116.543 20.244C116.039 19.74 115.787 19.0773 115.787 18.256C115.787 17.4533 116.039 16.6973 116.543 15.988C117.047 15.26 117.738 14.6066 118.615 14.028C119.492 13.4493 120.491 12.9826 121.611 12.628C121.854 12.5533 121.975 12.3946 121.975 12.152V9.60397C121.975 8.70797 121.835 8.0733 121.555 7.69997C121.275 7.30797 120.892 7.11197 120.407 7.11197C119.94 7.11197 119.511 7.32664 119.119 7.75597C118.746 8.16664 118.475 8.86664 118.307 9.85597C118.214 10.4533 118.008 10.892 117.691 11.172C117.392 11.4333 117.084 11.564 116.767 11.564C116.244 11.564 115.983 11.3026 115.983 10.78C115.983 10.2386 116.132 9.70664 116.431 9.18397C116.748 8.64264 117.159 8.1573 117.663 7.72797C118.167 7.27997 118.718 6.9253 119.315 6.66397C119.912 6.40264 120.51 6.27197 121.107 6.27197C122.955 6.27197 123.879 7.3453 123.879 9.49197V18.06C123.879 18.844 124.075 19.236 124.467 19.236C124.71 19.236 124.934 19.0773 125.139 18.76C125.344 18.424 125.447 17.864 125.447 17.08C125.447 16.7813 125.568 16.632 125.811 16.632C126.035 16.632 126.147 16.7906 126.147 17.108C126.147 18.4706 125.904 19.46 125.419 20.076C124.952 20.6733 124.42 20.972 123.823 20.972C123.375 20.972 123.02 20.7946 122.759 20.44C122.498 20.0666 122.32 19.628 122.227 19.124C122.208 18.9373 122.124 18.844 121.975 18.844C121.844 18.8253 121.714 18.9093 121.583 19.096C121.135 19.712 120.678 20.1786 120.211 20.496C119.744 20.8133 119.166 20.972 118.475 20.972ZM119.231 19.684C119.716 19.684 120.164 19.516 120.575 19.18C120.986 18.8253 121.322 18.3586 121.583 17.78C121.844 17.2013 121.975 16.548 121.975 15.82V13.776C121.975 13.4213 121.779 13.3186 121.387 13.468C120.248 13.8786 119.362 14.448 118.727 15.176C118.111 15.8853 117.803 16.744 117.803 17.752C117.803 19.04 118.279 19.684 119.231 19.684ZM131.449 20.72C131.169 20.72 131.029 20.6173 131.029 20.412C131.029 20.244 131.15 20.132 131.393 20.076L132.037 19.964C132.429 19.8893 132.681 19.7866 132.793 19.656C132.923 19.5253 132.989 19.264 132.989 18.872V2.40797C132.989 2.01597 132.923 1.75464 132.793 1.62397C132.681 1.4933 132.429 1.39064 132.037 1.31597L131.393 1.20397C131.15 1.14797 131.029 1.03597 131.029 0.867969C131.029 0.662636 131.169 0.55997 131.449 0.55997H136.517C136.797 0.55997 136.937 0.662636 136.937 0.867969C136.937 1.03597 136.815 1.14797 136.573 1.20397L135.929 1.31597C135.537 1.39064 135.275 1.4933 135.145 1.62397C135.033 1.75464 134.977 2.01597 134.977 2.40797V18.872C134.977 19.264 135.033 19.5253 135.145 19.656C135.275 19.7866 135.537 19.8893 135.929 19.964L136.573 20.076C136.815 20.132 136.937 20.244 136.937 20.412C136.937 20.6173 136.797 20.72 136.517 20.72H131.449ZM138.029 20.72C137.749 20.72 137.609 20.6173 137.609 20.412C137.609 20.244 137.731 20.132 137.973 20.076L138.309 20.02C138.701 19.9453 138.953 19.8333 139.065 19.684C139.196 19.516 139.261 19.236 139.261 18.844V9.43597C139.261 9.09997 139.205 8.87597 139.093 8.76397C139 8.6333 138.823 8.5493 138.561 8.51197L137.973 8.42797C137.731 8.4093 137.609 8.30664 137.609 8.11997C137.609 7.97064 137.759 7.86797 138.057 7.81197C138.636 7.71864 139.075 7.5693 139.373 7.36397C139.691 7.15864 140.017 6.90664 140.353 6.60797C140.521 6.43997 140.661 6.35597 140.773 6.35597C140.941 6.35597 141.025 6.46797 141.025 6.69197V7.95197C141.025 8.11997 141.081 8.23197 141.193 8.28797C141.324 8.3253 141.464 8.2693 141.613 8.11997C142.36 7.41064 143.013 6.9253 143.573 6.66397C144.152 6.40264 144.759 6.27197 145.393 6.27197C146.233 6.27197 146.905 6.57064 147.409 7.16797C147.913 7.74664 148.165 8.6053 148.165 9.74397V18.844C148.165 19.236 148.221 19.516 148.333 19.684C148.464 19.8333 148.725 19.936 149.117 19.992L149.733 20.076C149.939 20.1133 150.041 20.2253 150.041 20.412C150.041 20.6173 149.929 20.72 149.705 20.72H145.001C144.74 20.72 144.609 20.6173 144.609 20.412C144.609 20.2253 144.712 20.1133 144.917 20.076L145.309 20.02C145.701 19.964 145.953 19.852 146.065 19.684C146.196 19.516 146.261 19.236 146.261 18.844V10.052C146.261 9.1373 146.093 8.4933 145.757 8.11997C145.421 7.74664 144.945 7.55997 144.329 7.55997C143.732 7.55997 143.191 7.7373 142.705 8.09197C142.239 8.42797 141.865 8.8853 141.585 9.46397C141.305 10.024 141.165 10.6493 141.165 11.34V18.844C141.165 19.236 141.221 19.516 141.333 19.684C141.464 19.852 141.725 19.9546 142.117 19.992L142.873 20.076C143.079 20.1133 143.181 20.216 143.181 20.384C143.181 20.608 143.041 20.72 142.761 20.72H138.029ZM154.178 20.972C153.524 20.972 152.983 20.748 152.554 20.3C152.143 19.8333 151.938 19.0773 151.938 18.032V7.55997C151.938 7.33597 151.826 7.22397 151.602 7.22397H150.79C150.491 7.22397 150.342 7.11197 150.342 6.88797C150.342 6.73864 150.426 6.60797 150.594 6.49597C151.21 6.06664 151.704 5.6093 152.078 5.12397C152.451 4.61997 152.778 3.93864 153.058 3.07997C153.188 2.68797 153.347 2.49197 153.534 2.49197C153.739 2.49197 153.842 2.6413 153.842 2.93997V6.04797C153.842 6.3093 153.972 6.43997 154.234 6.43997H156.054C156.352 6.43997 156.502 6.57064 156.502 6.83197C156.502 7.0933 156.352 7.22397 156.054 7.22397H154.234C153.972 7.22397 153.842 7.35464 153.842 7.61597V18.06C153.842 18.4706 153.907 18.7973 154.038 19.04C154.168 19.264 154.411 19.376 154.766 19.376C155.158 19.376 155.475 19.18 155.718 18.788C155.979 18.396 156.147 17.7613 156.222 16.884C156.259 16.6226 156.38 16.492 156.586 16.492C156.81 16.492 156.922 16.632 156.922 16.912C156.866 18.3493 156.567 19.3853 156.026 20.02C155.503 20.6546 154.887 20.972 154.178 20.972ZM162.404 20.972C161.508 20.972 160.705 20.6733 159.996 20.076C159.286 19.4786 158.717 18.6386 158.288 17.556C157.877 16.4546 157.672 15.1853 157.672 13.748C157.672 12.2733 157.886 10.976 158.316 9.85597C158.745 8.73597 159.333 7.85864 160.08 7.22397C160.826 6.5893 161.657 6.27197 162.572 6.27197C163.673 6.27197 164.56 6.7293 165.232 7.64397C165.922 8.53997 166.268 10.0053 166.268 12.04C166.268 12.656 166.034 12.964 165.568 12.964H160.248C159.874 12.964 159.688 13.1786 159.688 13.608C159.688 15.5866 159.977 17.0706 160.556 18.06C161.134 19.0493 161.872 19.544 162.768 19.544C163.477 19.544 164.056 19.292 164.504 18.788C164.952 18.284 165.316 17.4346 165.596 16.24C165.652 16.0346 165.773 15.932 165.96 15.932C166.184 15.932 166.268 16.1186 166.212 16.492C165.913 18.1533 165.437 19.32 164.784 19.992C164.13 20.6453 163.337 20.972 162.404 20.972ZM160.164 12.264H162.992C163.888 12.264 164.336 11.7973 164.336 10.864C164.336 9.65064 164.186 8.69864 163.888 8.00797C163.589 7.3173 163.141 6.97197 162.544 6.97197C161.816 6.97197 161.2 7.39197 160.696 8.23197C160.21 9.07197 159.893 10.2666 159.744 11.816C159.706 12.1146 159.846 12.264 160.164 12.264ZM171.685 26.74C170.266 26.74 169.146 26.4506 168.325 25.872C167.503 25.312 167.093 24.6306 167.093 23.828C167.093 23.492 167.139 23.184 167.233 22.904C167.326 22.6426 167.522 22.3346 167.821 21.98C168.138 21.6253 168.614 21.168 169.249 20.608C169.473 20.4026 169.585 20.216 169.585 20.048C169.585 19.8613 169.473 19.7213 169.249 19.628C168.577 19.348 168.175 18.9933 168.045 18.564C167.914 18.116 168.073 17.7053 168.521 17.332L170.537 15.596C170.761 15.4093 170.751 15.2506 170.509 15.12C169.743 14.7466 169.137 14.168 168.689 13.384C168.241 12.6 168.017 11.76 168.017 10.864C168.017 10.0053 168.203 9.23064 168.577 8.53997C168.95 7.8493 169.454 7.29864 170.089 6.88797C170.723 6.4773 171.433 6.27197 172.217 6.27197C172.665 6.27197 173.094 6.34664 173.505 6.49597C173.766 6.5893 173.925 6.5053 173.981 6.24397C174.149 5.53464 174.457 4.98397 174.905 4.59197C175.371 4.1813 175.829 3.97597 176.277 3.97597C176.706 3.97597 177.051 4.10664 177.313 4.36797C177.593 4.61064 177.733 4.91864 177.733 5.29197C177.733 5.6093 177.639 5.8613 177.453 6.04797C177.266 6.23464 177.033 6.32797 176.753 6.32797C176.51 6.32797 176.333 6.2813 176.221 6.18797C176.109 6.09464 176.006 6.0013 175.913 5.90797C175.819 5.81464 175.67 5.76797 175.465 5.76797C175.017 5.76797 174.737 6.01064 174.625 6.49597C174.569 6.68264 174.569 6.8413 174.625 6.97197C174.699 7.10264 174.802 7.2333 174.933 7.36397C175.381 7.7933 175.726 8.31597 175.969 8.93197C176.23 9.54797 176.361 10.2293 176.361 10.976C176.361 11.872 176.174 12.6746 175.801 13.384C175.446 14.0933 174.951 14.6533 174.317 15.064C173.701 15.4746 173.001 15.68 172.217 15.68C171.881 15.68 171.591 15.7546 171.349 15.904C171.106 16.0346 170.863 16.2306 170.621 16.492L170.145 17.024C169.902 17.3226 169.827 17.612 169.921 17.892C170.033 18.1533 170.294 18.284 170.705 18.284H173.113C174.457 18.284 175.521 18.62 176.305 19.292C177.089 19.9453 177.481 20.8506 177.481 22.008C177.481 22.9226 177.219 23.7346 176.697 24.444C176.174 25.1533 175.474 25.7133 174.597 26.124C173.738 26.5346 172.767 26.74 171.685 26.74ZM172.189 14.98C172.861 14.98 173.393 14.616 173.785 13.888C174.177 13.16 174.373 12.1706 174.373 10.92C174.373 9.70664 174.167 8.73597 173.757 8.00797C173.365 7.2613 172.842 6.88797 172.189 6.88797C171.535 6.88797 171.003 7.2613 170.593 8.00797C170.201 8.73597 170.005 9.70664 170.005 10.92C170.005 12.1706 170.201 13.16 170.593 13.888C170.985 14.616 171.517 14.98 172.189 14.98ZM172.021 26.124C172.693 26.124 173.309 25.9746 173.869 25.676C174.429 25.3773 174.867 24.9573 175.185 24.416C175.521 23.8933 175.689 23.296 175.689 22.624C175.689 21.784 175.437 21.14 174.933 20.692C174.447 20.2253 173.757 19.992 172.861 19.992H172.217C171.638 19.992 171.199 20.048 170.901 20.16C170.621 20.272 170.35 20.468 170.089 20.748C169.51 21.364 169.146 21.8586 168.997 22.232C168.847 22.6053 168.773 22.988 168.773 23.38C168.773 24.2013 169.053 24.864 169.613 25.368C170.191 25.872 170.994 26.124 172.021 26.124ZM181.998 8.23197C182.764 6.9253 183.688 6.27197 184.77 6.27197C185.386 6.27197 185.844 6.45864 186.142 6.83197C186.441 7.18664 186.59 7.58797 186.59 8.03597C186.59 8.39064 186.497 8.67997 186.31 8.90397C186.142 9.12797 185.872 9.23997 185.498 9.23997C185.2 9.23997 184.976 9.17464 184.826 9.04397C184.696 8.89464 184.584 8.72664 184.49 8.53997C184.416 8.3533 184.322 8.19464 184.21 8.06397C184.098 7.91464 183.912 7.83997 183.65 7.83997C183.314 7.83997 182.997 8.0453 182.698 8.45597C182.4 8.84797 182.148 9.37997 181.942 10.052C181.756 10.724 181.662 11.4893 181.662 12.348V18.844C181.662 19.236 181.718 19.516 181.83 19.684C181.961 19.852 182.222 19.9546 182.614 19.992L183.37 20.076C183.576 20.1133 183.678 20.216 183.678 20.384C183.678 20.608 183.538 20.72 183.258 20.72H178.526C178.246 20.72 178.106 20.6173 178.106 20.412C178.106 20.244 178.228 20.132 178.47 20.076L178.806 20.02C179.198 19.9453 179.45 19.8333 179.562 19.684C179.693 19.516 179.758 19.236 179.758 18.844V9.43597C179.758 9.09997 179.702 8.87597 179.59 8.76397C179.497 8.6333 179.32 8.5493 179.058 8.51197L178.47 8.42797C178.228 8.4093 178.106 8.30664 178.106 8.11997C178.106 7.97064 178.256 7.86797 178.554 7.81197C179.133 7.71864 179.572 7.5693 179.87 7.36397C180.188 7.15864 180.514 6.90664 180.85 6.60797C181.018 6.43997 181.158 6.35597 181.27 6.35597C181.438 6.35597 181.522 6.46797 181.522 6.69197V8.20397C181.522 8.33464 181.578 8.41864 181.69 8.45597C181.802 8.47464 181.905 8.39997 181.998 8.23197ZM189.188 20.972C188.404 20.972 187.76 20.7293 187.256 20.244C186.752 19.74 186.5 19.0773 186.5 18.256C186.5 17.4533 186.752 16.6973 187.256 15.988C187.76 15.26 188.451 14.6066 189.328 14.028C190.206 13.4493 191.204 12.9826 192.324 12.628C192.567 12.5533 192.688 12.3946 192.688 12.152V9.60397C192.688 8.70797 192.548 8.0733 192.268 7.69997C191.988 7.30797 191.606 7.11197 191.12 7.11197C190.654 7.11197 190.224 7.32664 189.832 7.75597C189.459 8.16664 189.188 8.86664 189.02 9.85597C188.927 10.4533 188.722 10.892 188.404 11.172C188.106 11.4333 187.798 11.564 187.48 11.564C186.958 11.564 186.696 11.3026 186.696 10.78C186.696 10.2386 186.846 9.70664 187.144 9.18397C187.462 8.64264 187.872 8.1573 188.376 7.72797C188.88 7.27997 189.431 6.9253 190.028 6.66397C190.626 6.40264 191.223 6.27197 191.82 6.27197C193.668 6.27197 194.592 7.3453 194.592 9.49197V18.06C194.592 18.844 194.788 19.236 195.18 19.236C195.423 19.236 195.647 19.0773 195.852 18.76C196.058 18.424 196.16 17.864 196.16 17.08C196.16 16.7813 196.282 16.632 196.524 16.632C196.748 16.632 196.86 16.7906 196.86 17.108C196.86 18.4706 196.618 19.46 196.132 20.076C195.666 20.6733 195.134 20.972 194.536 20.972C194.088 20.972 193.734 20.7946 193.472 20.44C193.211 20.0666 193.034 19.628 192.94 19.124C192.922 18.9373 192.838 18.844 192.688 18.844C192.558 18.8253 192.427 18.9093 192.296 19.096C191.848 19.712 191.391 20.1786 190.924 20.496C190.458 20.8133 189.879 20.972 189.188 20.972ZM189.944 19.684C190.43 19.684 190.878 19.516 191.288 19.18C191.699 18.8253 192.035 18.3586 192.296 17.78C192.558 17.2013 192.688 16.548 192.688 15.82V13.776C192.688 13.4213 192.492 13.3186 192.1 13.468C190.962 13.8786 190.075 14.448 189.44 15.176C188.824 15.8853 188.516 16.744 188.516 17.752C188.516 19.04 188.992 19.684 189.944 19.684ZM200.684 20.972C200.03 20.972 199.489 20.748 199.06 20.3C198.649 19.8333 198.444 19.0773 198.444 18.032V7.55997C198.444 7.33597 198.332 7.22397 198.108 7.22397H197.296C196.997 7.22397 196.848 7.11197 196.848 6.88797C196.848 6.73864 196.932 6.60797 197.1 6.49597C197.716 6.06664 198.21 5.6093 198.584 5.12397C198.957 4.61997 199.284 3.93864 199.564 3.07997C199.694 2.68797 199.853 2.49197 200.04 2.49197C200.245 2.49197 200.348 2.6413 200.348 2.93997V6.04797C200.348 6.3093 200.478 6.43997 200.74 6.43997H202.56C202.858 6.43997 203.008 6.57064 203.008 6.83197C203.008 7.0933 202.858 7.22397 202.56 7.22397H200.74C200.478 7.22397 200.348 7.35464 200.348 7.61597V18.06C200.348 18.4706 200.413 18.7973 200.544 19.04C200.674 19.264 200.917 19.376 201.272 19.376C201.664 19.376 201.981 19.18 202.224 18.788C202.485 18.396 202.653 17.7613 202.728 16.884C202.765 16.6226 202.886 16.492 203.092 16.492C203.316 16.492 203.428 16.632 203.428 16.912C203.372 18.3493 203.073 19.3853 202.532 20.02C202.009 20.6546 201.393 20.972 200.684 20.972ZM206.726 3.77997C206.334 3.77997 205.998 3.63997 205.718 3.35997C205.457 3.07997 205.326 2.7253 205.326 2.29597C205.326 1.86664 205.457 1.5213 205.718 1.25997C205.998 0.97997 206.334 0.83997 206.726 0.83997C207.118 0.83997 207.445 0.97997 207.706 1.25997C207.967 1.5213 208.098 1.86664 208.098 2.29597C208.098 2.7253 207.967 3.07997 207.706 3.35997C207.445 3.63997 207.118 3.77997 206.726 3.77997ZM204.374 20.72C204.094 20.72 203.954 20.6173 203.954 20.412C203.954 20.244 204.075 20.132 204.318 20.076L204.654 20.02C205.121 19.9453 205.419 19.8333 205.55 19.684C205.681 19.516 205.746 19.236 205.746 18.844V9.43597C205.746 9.09997 205.69 8.87597 205.578 8.76397C205.485 8.6333 205.307 8.5493 205.046 8.51197L204.458 8.42797C204.215 8.4093 204.094 8.30664 204.094 8.11997C204.094 7.97064 204.243 7.86797 204.542 7.81197C205.121 7.71864 205.587 7.5693 205.942 7.36397C206.297 7.15864 206.642 6.90664 206.978 6.60797C207.146 6.43997 207.286 6.35597 207.398 6.35597C207.566 6.35597 207.65 6.46797 207.65 6.69197V18.844C207.65 19.236 207.706 19.516 207.818 19.684C207.93 19.852 208.145 19.9546 208.462 19.992L209.162 20.076C209.367 20.1133 209.47 20.216 209.47 20.384C209.47 20.608 209.33 20.72 209.05 20.72H204.374ZM214.92 20.972C214.752 20.972 214.631 20.8693 214.556 20.664L210.832 8.31597C210.702 7.86797 210.571 7.57864 210.44 7.44797C210.328 7.3173 210.142 7.22397 209.88 7.16797L209.46 7.08397C209.218 7.02797 209.096 6.90664 209.096 6.71997C209.096 6.5333 209.227 6.43997 209.488 6.43997H214.108C214.37 6.43997 214.5 6.5333 214.5 6.71997C214.5 6.9253 214.379 7.04664 214.136 7.08397L213.688 7.13997C213.24 7.19597 212.96 7.30797 212.848 7.47597C212.736 7.6253 212.736 7.9053 212.848 8.31597L215.172 16.408C215.228 16.6133 215.322 16.716 215.452 16.716C215.583 16.716 215.676 16.6133 215.732 16.408L218 8.81997C218.15 8.31597 218.187 7.94264 218.112 7.69997C218.056 7.43864 217.795 7.27064 217.328 7.19597L216.74 7.08397C216.498 7.02797 216.376 6.90664 216.376 6.71997C216.376 6.5333 216.507 6.43997 216.768 6.43997H220.324C220.586 6.43997 220.716 6.54264 220.716 6.74797C220.716 6.93464 220.604 7.0653 220.38 7.13997L220.128 7.22397C219.848 7.3173 219.606 7.4853 219.4 7.72797C219.214 7.97064 219.027 8.39064 218.84 8.98797L215.284 20.664C215.21 20.8693 215.088 20.972 214.92 20.972ZM223.232 20.972C222.448 20.972 221.804 20.7293 221.3 20.244C220.796 19.74 220.544 19.0773 220.544 18.256C220.544 17.4533 220.796 16.6973 221.3 15.988C221.804 15.26 222.495 14.6066 223.372 14.028C224.25 13.4493 225.248 12.9826 226.368 12.628C226.611 12.5533 226.732 12.3946 226.732 12.152V9.60397C226.732 8.70797 226.592 8.0733 226.312 7.69997C226.032 7.30797 225.65 7.11197 225.164 7.11197C224.698 7.11197 224.268 7.32664 223.876 7.75597C223.503 8.16664 223.232 8.86664 223.064 9.85597C222.971 10.4533 222.766 10.892 222.448 11.172C222.15 11.4333 221.842 11.564 221.524 11.564C221.002 11.564 220.74 11.3026 220.74 10.78C220.74 10.2386 220.89 9.70664 221.188 9.18397C221.506 8.64264 221.916 8.1573 222.42 7.72797C222.924 7.27997 223.475 6.9253 224.072 6.66397C224.67 6.40264 225.267 6.27197 225.864 6.27197C227.712 6.27197 228.636 7.3453 228.636 9.49197V18.06C228.636 18.844 228.832 19.236 229.224 19.236C229.467 19.236 229.691 19.0773 229.896 18.76C230.102 18.424 230.204 17.864 230.204 17.08C230.204 16.7813 230.326 16.632 230.568 16.632C230.792 16.632 230.904 16.7906 230.904 17.108C230.904 18.4706 230.662 19.46 230.176 20.076C229.71 20.6733 229.178 20.972 228.58 20.972C228.132 20.972 227.778 20.7946 227.516 20.44C227.255 20.0666 227.078 19.628 226.984 19.124C226.966 18.9373 226.882 18.844 226.732 18.844C226.602 18.8253 226.471 18.9093 226.34 19.096C225.892 19.712 225.435 20.1786 224.968 20.496C224.502 20.8133 223.923 20.972 223.232 20.972ZM223.988 19.684C224.474 19.684 224.922 19.516 225.332 19.18C225.743 18.8253 226.079 18.3586 226.34 17.78C226.602 17.2013 226.732 16.548 226.732 15.82V13.776C226.732 13.4213 226.536 13.3186 226.144 13.468C225.006 13.8786 224.119 14.448 223.484 15.176C222.868 15.8853 222.56 16.744 222.56 17.752C222.56 19.04 223.036 19.684 223.988 19.684ZM242.814 20.972C241.918 20.972 241.078 20.7106 240.294 20.188C239.51 19.6466 238.819 18.9093 238.222 17.976C237.643 17.0426 237.186 15.9506 236.85 14.7C236.532 13.4306 236.374 12.068 236.374 10.612C236.374 9.15597 236.532 7.80264 236.85 6.55197C237.186 5.3013 237.643 4.2093 238.222 3.27597C238.819 2.32397 239.51 1.58664 240.294 1.06397C241.078 0.541303 241.918 0.27997 242.814 0.27997C243.71 0.27997 244.54 0.541303 245.306 1.06397C246.09 1.58664 246.78 2.32397 247.378 3.27597C247.975 4.2093 248.432 5.3013 248.75 6.55197C249.086 7.80264 249.254 9.15597 249.254 10.612C249.254 12.068 249.086 13.4306 248.75 14.7C248.432 15.9506 247.975 17.0426 247.378 17.976C246.78 18.9093 246.09 19.6466 245.306 20.188C244.54 20.7106 243.71 20.972 242.814 20.972ZM242.814 20.216C244.139 20.216 245.175 19.4226 245.922 17.836C246.668 16.2493 247.042 13.8413 247.042 10.612C247.042 7.38264 246.668 4.98397 245.922 3.41597C245.175 1.8293 244.139 1.03597 242.814 1.03597C241.507 1.03597 240.471 1.8293 239.706 3.41597C238.959 4.98397 238.586 7.38264 238.586 10.612C238.586 13.8413 238.959 16.2493 239.706 17.836C240.471 19.4226 241.507 20.216 242.814 20.216ZM254.407 8.23197C255.172 6.9253 256.096 6.27197 257.179 6.27197C257.795 6.27197 258.252 6.45864 258.551 6.83197C258.849 7.18664 258.999 7.58797 258.999 8.03597C258.999 8.39064 258.905 8.67997 258.719 8.90397C258.551 9.12797 258.28 9.23997 257.907 9.23997C257.608 9.23997 257.384 9.17464 257.235 9.04397C257.104 8.89464 256.992 8.72664 256.899 8.53997C256.824 8.3533 256.731 8.19464 256.619 8.06397C256.507 7.91464 256.32 7.83997 256.059 7.83997C255.723 7.83997 255.405 8.0453 255.107 8.45597C254.808 8.84797 254.556 9.37997 254.351 10.052C254.164 10.724 254.071 11.4893 254.071 12.348V18.844C254.071 19.236 254.127 19.516 254.239 19.684C254.369 19.852 254.631 19.9546 255.023 19.992L255.779 20.076C255.984 20.1133 256.087 20.216 256.087 20.384C256.087 20.608 255.947 20.72 255.667 20.72H250.935C250.655 20.72 250.515 20.6173 250.515 20.412C250.515 20.244 250.636 20.132 250.879 20.076L251.215 20.02C251.607 19.9453 251.859 19.8333 251.971 19.684C252.101 19.516 252.167 19.236 252.167 18.844V9.43597C252.167 9.09997 252.111 8.87597 251.999 8.76397C251.905 8.6333 251.728 8.5493 251.467 8.51197L250.879 8.42797C250.636 8.4093 250.515 8.30664 250.515 8.11997C250.515 7.97064 250.664 7.86797 250.963 7.81197C251.541 7.71864 251.98 7.5693 252.279 7.36397C252.596 7.15864 252.923 6.90664 253.259 6.60797C253.427 6.43997 253.567 6.35597 253.679 6.35597C253.847 6.35597 253.931 6.46797 253.931 6.69197V8.20397C253.931 8.33464 253.987 8.41864 254.099 8.45597C254.211 8.47464 254.313 8.39997 254.407 8.23197ZM263.221 26.74C261.802 26.74 260.682 26.4506 259.861 25.872C259.039 25.312 258.629 24.6306 258.629 23.828C258.629 23.492 258.675 23.184 258.769 22.904C258.862 22.6426 259.058 22.3346 259.357 21.98C259.674 21.6253 260.15 21.168 260.785 20.608C261.009 20.4026 261.121 20.216 261.121 20.048C261.121 19.8613 261.009 19.7213 260.785 19.628C260.113 19.348 259.711 18.9933 259.581 18.564C259.45 18.116 259.609 17.7053 260.057 17.332L262.073 15.596C262.297 15.4093 262.287 15.2506 262.045 15.12C261.279 14.7466 260.673 14.168 260.225 13.384C259.777 12.6 259.553 11.76 259.553 10.864C259.553 10.0053 259.739 9.23064 260.113 8.53997C260.486 7.8493 260.99 7.29864 261.625 6.88797C262.259 6.4773 262.969 6.27197 263.753 6.27197C264.201 6.27197 264.63 6.34664 265.041 6.49597C265.302 6.5893 265.461 6.5053 265.517 6.24397C265.685 5.53464 265.993 4.98397 266.441 4.59197C266.907 4.1813 267.365 3.97597 267.813 3.97597C268.242 3.97597 268.587 4.10664 268.849 4.36797C269.129 4.61064 269.269 4.91864 269.269 5.29197C269.269 5.6093 269.175 5.8613 268.989 6.04797C268.802 6.23464 268.569 6.32797 268.289 6.32797C268.046 6.32797 267.869 6.2813 267.757 6.18797C267.645 6.09464 267.542 6.0013 267.449 5.90797C267.355 5.81464 267.206 5.76797 267.001 5.76797C266.553 5.76797 266.273 6.01064 266.161 6.49597C266.105 6.68264 266.105 6.8413 266.161 6.97197C266.235 7.10264 266.338 7.2333 266.469 7.36397C266.917 7.7933 267.262 8.31597 267.505 8.93197C267.766 9.54797 267.897 10.2293 267.897 10.976C267.897 11.872 267.71 12.6746 267.337 13.384C266.982 14.0933 266.487 14.6533 265.853 15.064C265.237 15.4746 264.537 15.68 263.753 15.68C263.417 15.68 263.127 15.7546 262.885 15.904C262.642 16.0346 262.399 16.2306 262.157 16.492L261.681 17.024C261.438 17.3226 261.363 17.612 261.457 17.892C261.569 18.1533 261.83 18.284 262.241 18.284H264.649C265.993 18.284 267.057 18.62 267.841 19.292C268.625 19.9453 269.017 20.8506 269.017 22.008C269.017 22.9226 268.755 23.7346 268.233 24.444C267.71 25.1533 267.01 25.7133 266.133 26.124C265.274 26.5346 264.303 26.74 263.221 26.74ZM263.725 14.98C264.397 14.98 264.929 14.616 265.321 13.888C265.713 13.16 265.909 12.1706 265.909 10.92C265.909 9.70664 265.703 8.73597 265.293 8.00797C264.901 7.2613 264.378 6.88797 263.725 6.88797C263.071 6.88797 262.539 7.2613 262.129 8.00797C261.737 8.73597 261.541 9.70664 261.541 10.92C261.541 12.1706 261.737 13.16 262.129 13.888C262.521 14.616 263.053 14.98 263.725 14.98ZM263.557 26.124C264.229 26.124 264.845 25.9746 265.405 25.676C265.965 25.3773 266.403 24.9573 266.721 24.416C267.057 23.8933 267.225 23.296 267.225 22.624C267.225 21.784 266.973 21.14 266.469 20.692C265.983 20.2253 265.293 19.992 264.397 19.992H263.753C263.174 19.992 262.735 20.048 262.437 20.16C262.157 20.272 261.886 20.468 261.625 20.748C261.046 21.364 260.682 21.8586 260.533 22.232C260.383 22.6053 260.309 22.988 260.309 23.38C260.309 24.2013 260.589 24.864 261.149 25.368C261.727 25.872 262.53 26.124 263.557 26.124ZM272.309 20.972C271.525 20.972 270.881 20.7293 270.377 20.244C269.873 19.74 269.621 19.0773 269.621 18.256C269.621 17.4533 269.873 16.6973 270.377 15.988C270.881 15.26 271.572 14.6066 272.449 14.028C273.326 13.4493 274.325 12.9826 275.445 12.628C275.688 12.5533 275.809 12.3946 275.809 12.152V9.60397C275.809 8.70797 275.669 8.0733 275.389 7.69997C275.109 7.30797 274.726 7.11197 274.241 7.11197C273.774 7.11197 273.345 7.32664 272.953 7.75597C272.58 8.16664 272.309 8.86664 272.141 9.85597C272.048 10.4533 271.842 10.892 271.525 11.172C271.226 11.4333 270.918 11.564 270.601 11.564C270.078 11.564 269.817 11.3026 269.817 10.78C269.817 10.2386 269.966 9.70664 270.265 9.18397C270.582 8.64264 270.993 8.1573 271.497 7.72797C272.001 7.27997 272.552 6.9253 273.149 6.66397C273.746 6.40264 274.344 6.27197 274.941 6.27197C276.789 6.27197 277.713 7.3453 277.713 9.49197V18.06C277.713 18.844 277.909 19.236 278.301 19.236C278.544 19.236 278.768 19.0773 278.973 18.76C279.178 18.424 279.281 17.864 279.281 17.08C279.281 16.7813 279.402 16.632 279.645 16.632C279.869 16.632 279.981 16.7906 279.981 17.108C279.981 18.4706 279.738 19.46 279.253 20.076C278.786 20.6733 278.254 20.972 277.657 20.972C277.209 20.972 276.854 20.7946 276.593 20.44C276.332 20.0666 276.154 19.628 276.061 19.124C276.042 18.9373 275.958 18.844 275.809 18.844C275.678 18.8253 275.548 18.9093 275.417 19.096C274.969 19.712 274.512 20.1786 274.045 20.496C273.578 20.8133 273 20.972 272.309 20.972ZM273.065 19.684C273.55 19.684 273.998 19.516 274.409 19.18C274.82 18.8253 275.156 18.3586 275.417 17.78C275.678 17.2013 275.809 16.548 275.809 15.82V13.776C275.809 13.4213 275.613 13.3186 275.221 13.468C274.082 13.8786 273.196 14.448 272.561 15.176C271.945 15.8853 271.637 16.744 271.637 17.752C271.637 19.04 272.113 19.684 273.065 19.684ZM270.797 4.31197C270.573 4.4613 270.386 4.44264 270.237 4.25597C270.106 4.10664 270.134 3.9293 270.321 3.72397L273.569 0.30797C273.774 0.102637 274.008 -2.95639e-05 274.269 -2.95639e-05H274.801C275.062 -2.95639e-05 275.296 0.102637 275.501 0.30797L278.749 3.72397C278.936 3.9293 278.964 4.10664 278.833 4.25597C278.721 4.44264 278.534 4.45197 278.273 4.28397L274.521 1.76397L270.797 4.31197ZM280.692 20.72C280.412 20.72 280.272 20.6173 280.272 20.412C280.272 20.244 280.394 20.132 280.636 20.076L280.972 20.02C281.364 19.9453 281.616 19.8333 281.728 19.684C281.859 19.516 281.924 19.236 281.924 18.844V9.43597C281.924 9.09997 281.868 8.87597 281.756 8.76397C281.663 8.6333 281.486 8.5493 281.224 8.51197L280.636 8.42797C280.394 8.4093 280.272 8.30664 280.272 8.11997C280.272 7.97064 280.422 7.86797 280.72 7.81197C281.299 7.71864 281.738 7.5693 282.036 7.36397C282.354 7.15864 282.68 6.90664 283.016 6.60797C283.184 6.43997 283.324 6.35597 283.436 6.35597C283.604 6.35597 283.688 6.46797 283.688 6.69197V7.95197C283.688 8.11997 283.744 8.23197 283.856 8.28797C283.987 8.3253 284.127 8.2693 284.276 8.11997C285.023 7.41064 285.676 6.9253 286.236 6.66397C286.815 6.40264 287.422 6.27197 288.056 6.27197C288.896 6.27197 289.568 6.57064 290.072 7.16797C290.576 7.74664 290.828 8.6053 290.828 9.74397V18.844C290.828 19.236 290.884 19.516 290.996 19.684C291.127 19.8333 291.388 19.936 291.78 19.992L292.396 20.076C292.602 20.1133 292.704 20.2253 292.704 20.412C292.704 20.6173 292.592 20.72 292.368 20.72H287.664C287.403 20.72 287.272 20.6173 287.272 20.412C287.272 20.2253 287.375 20.1133 287.58 20.076L287.972 20.02C288.364 19.964 288.616 19.852 288.728 19.684C288.859 19.516 288.924 19.236 288.924 18.844V10.052C288.924 9.1373 288.756 8.4933 288.42 8.11997C288.084 7.74664 287.608 7.55997 286.992 7.55997C286.395 7.55997 285.854 7.7373 285.368 8.09197C284.902 8.42797 284.528 8.8853 284.248 9.46397C283.968 10.024 283.828 10.6493 283.828 11.34V18.844C283.828 19.236 283.884 19.516 283.996 19.684C284.127 19.852 284.388 19.9546 284.78 19.992L285.536 20.076C285.742 20.1133 285.844 20.216 285.844 20.384C285.844 20.608 285.704 20.72 285.424 20.72H280.692ZM295.917 3.77997C295.525 3.77997 295.189 3.63997 294.909 3.35997C294.647 3.07997 294.517 2.7253 294.517 2.29597C294.517 1.86664 294.647 1.5213 294.909 1.25997C295.189 0.97997 295.525 0.83997 295.917 0.83997C296.309 0.83997 296.635 0.97997 296.897 1.25997C297.158 1.5213 297.289 1.86664 297.289 2.29597C297.289 2.7253 297.158 3.07997 296.897 3.35997C296.635 3.63997 296.309 3.77997 295.917 3.77997ZM293.565 20.72C293.285 20.72 293.145 20.6173 293.145 20.412C293.145 20.244 293.266 20.132 293.509 20.076L293.845 20.02C294.311 19.9453 294.61 19.8333 294.741 19.684C294.871 19.516 294.937 19.236 294.937 18.844V9.43597C294.937 9.09997 294.881 8.87597 294.769 8.76397C294.675 8.6333 294.498 8.5493 294.237 8.51197L293.649 8.42797C293.406 8.4093 293.285 8.30664 293.285 8.11997C293.285 7.97064 293.434 7.86797 293.733 7.81197C294.311 7.71864 294.778 7.5693 295.133 7.36397C295.487 7.15864 295.833 6.90664 296.169 6.60797C296.337 6.43997 296.477 6.35597 296.589 6.35597C296.757 6.35597 296.841 6.46797 296.841 6.69197V18.844C296.841 19.236 296.897 19.516 297.009 19.684C297.121 19.852 297.335 19.9546 297.653 19.992L298.353 20.076C298.558 20.1133 298.661 20.216 298.661 20.384C298.661 20.608 298.521 20.72 298.241 20.72H293.565ZM303.719 20.972C302.898 20.972 302.151 20.7013 301.479 20.16C300.826 19.6 300.303 18.8066 299.911 17.78C299.519 16.7533 299.323 15.5306 299.323 14.112C299.323 12.5253 299.557 11.144 300.023 9.96797C300.509 8.79197 301.162 7.88664 301.983 7.25197C302.805 6.59864 303.719 6.27197 304.727 6.27197C305.586 6.27197 306.258 6.43997 306.743 6.77597C306.93 6.90664 307.023 7.11197 307.023 7.39197L307.079 10.808C307.079 11.088 306.967 11.228 306.743 11.228C306.538 11.228 306.407 11.1066 306.351 10.864C306.09 9.8373 305.838 9.04397 305.595 8.48397C305.353 7.92397 305.101 7.5413 304.839 7.33597C304.578 7.11197 304.289 6.99997 303.971 6.99997C303.598 6.99997 303.206 7.21464 302.795 7.64397C302.403 8.0733 302.067 8.7733 301.787 9.74397C301.526 10.696 301.395 11.956 301.395 13.524C301.395 15.5213 301.647 17.024 302.151 18.032C302.674 19.04 303.346 19.544 304.167 19.544C304.821 19.544 305.362 19.2733 305.791 18.732C306.239 18.1906 306.622 17.2106 306.939 15.792C306.995 15.5866 307.107 15.484 307.275 15.484C307.499 15.484 307.583 15.6706 307.527 16.044C307.322 17.3506 307.033 18.368 306.659 19.096C306.305 19.8053 305.875 20.3 305.371 20.58C304.886 20.8413 304.335 20.972 303.719 20.972ZM311.247 20.972C310.463 20.972 309.819 20.7293 309.315 20.244C308.811 19.74 308.559 19.0773 308.559 18.256C308.559 17.4533 308.811 16.6973 309.315 15.988C309.819 15.26 310.51 14.6066 311.387 14.028C312.265 13.4493 313.263 12.9826 314.383 12.628C314.626 12.5533 314.747 12.3946 314.747 12.152V9.60397C314.747 8.70797 314.607 8.0733 314.327 7.69997C314.047 7.30797 313.665 7.11197 313.179 7.11197C312.713 7.11197 312.283 7.32664 311.891 7.75597C311.518 8.16664 311.247 8.86664 311.079 9.85597C310.986 10.4533 310.781 10.892 310.463 11.172C310.165 11.4333 309.857 11.564 309.539 11.564C309.017 11.564 308.755 11.3026 308.755 10.78C308.755 10.2386 308.905 9.70664 309.203 9.18397C309.521 8.64264 309.931 8.1573 310.435 7.72797C310.939 7.27997 311.49 6.9253 312.087 6.66397C312.685 6.40264 313.282 6.27197 313.879 6.27197C315.727 6.27197 316.651 7.3453 316.651 9.49197V18.06C316.651 18.844 316.847 19.236 317.239 19.236C317.482 19.236 317.706 19.0773 317.911 18.76C318.117 18.424 318.219 17.864 318.219 17.08C318.219 16.7813 318.341 16.632 318.583 16.632C318.807 16.632 318.919 16.7906 318.919 17.108C318.919 18.4706 318.677 19.46 318.191 20.076C317.725 20.6733 317.193 20.972 316.595 20.972C316.147 20.972 315.793 20.7946 315.531 20.44C315.27 20.0666 315.093 19.628 314.999 19.124C314.981 18.9373 314.897 18.844 314.747 18.844C314.617 18.8253 314.486 18.9093 314.355 19.096C313.907 19.712 313.45 20.1786 312.983 20.496C312.517 20.8133 311.938 20.972 311.247 20.972ZM312.003 19.684C312.489 19.684 312.937 19.516 313.347 19.18C313.758 18.8253 314.094 18.3586 314.355 17.78C314.617 17.2013 314.747 16.548 314.747 15.82V13.776C314.747 13.4213 314.551 13.3186 314.159 13.468C313.021 13.8786 312.134 14.448 311.499 15.176C310.883 15.8853 310.575 16.744 310.575 17.752C310.575 19.04 311.051 19.684 312.003 19.684Z" fill="#E0F2D0"/>
</svg>
