<svg width="97" height="48" viewBox="0 0 97 48" fill="none" xmlns="http://www.w3.org/2000/svg">
<path d="M17.4982 0.151611C17.5663 0.156189 17.6331 0.174245 17.6935 0.206299C17.7539 0.238363 17.8069 0.283348 17.8488 0.337158C17.8906 0.390944 17.9204 0.45345 17.9367 0.519775C17.953 0.586145 17.9547 0.654949 17.9426 0.721924C17.9303 0.78921 17.904 0.85314 17.8654 0.909424C17.8269 0.965615 17.7772 1.01345 17.7189 1.04907C17.6653 1.08182 17.6052 1.10248 17.5432 1.11255L17.5441 1.11353C12.3046 2.41094 8.19284 3.98911 5.39471 5.7229C2.58864 7.46163 1.14374 9.33042 1.14374 11.1975C1.14387 12.9862 2.41717 14.7248 4.80096 16.3333C6.12278 17.2251 7.77645 18.0687 9.71796 18.8528C13.8853 17.1813 19.2883 15.779 25.6682 14.7708L25.674 14.7698C25.7995 14.7549 25.9258 14.7885 26.0275 14.8635C26.1038 14.9198 26.1626 14.996 26.1965 15.0833L26.2219 15.1741V15.178C26.2415 15.3042 26.2107 15.4329 26.1359 15.5364C26.0611 15.6399 25.9485 15.7098 25.8224 15.7307H25.8215C19.9668 16.6544 14.9668 17.898 11.0266 19.3557C12.2282 19.7963 13.524 20.2165 14.9064 20.6116C22.8009 22.8676 33.4775 24.3303 45.3264 24.5413C45.5067 24.4838 45.6857 24.4216 45.8635 24.3557C46.6894 23.9108 47.3111 23.163 47.5959 22.2688L47.5978 22.262C47.8569 21.5644 47.9899 20.4424 48.0568 19.4797C48.09 19.0017 48.1071 18.5683 48.1154 18.2542C48.1196 18.0972 48.1212 17.9698 48.1223 17.8821C48.1228 17.8385 48.1231 17.8045 48.1232 17.7815V17.7463L48.424 17.7454V17.7805C48.4243 17.8035 48.4251 17.8376 48.426 17.8811C48.4276 17.9688 48.4306 18.0962 48.4357 18.2532C48.446 18.5674 48.4641 19.0015 48.4992 19.4797C48.561 20.3219 48.6717 21.2867 48.8664 21.9827L48.9553 22.2639L48.9572 22.2688C49.2426 23.1623 49.8626 23.9103 50.6867 24.3577C50.8651 24.4236 51.0449 24.4848 51.2258 24.5422C63.0916 24.334 73.7854 22.8703 81.6906 20.6116C83.0681 20.218 84.3597 19.7994 85.5578 19.3606C81.613 17.8987 76.6032 16.651 70.7336 15.7249V15.7258C70.6061 15.7067 70.4908 15.6371 70.4142 15.5334C70.3379 15.43 70.3063 15.3004 70.3254 15.1731C70.3445 15.0457 70.4131 14.9303 70.5168 14.8538C70.6204 14.7773 70.7507 14.7457 70.8781 14.7649H70.8791C77.2744 15.7756 82.6881 17.183 86.8596 18.8606C88.8103 18.0742 90.4713 17.2282 91.798 16.3333C94.1825 14.7248 95.4561 12.9863 95.4562 11.1975C95.4562 9.33034 94.0111 7.45819 91.2043 5.71802C88.4054 3.98287 84.2922 2.405 79.05 1.11353C78.9886 1.09846 78.9307 1.07072 78.8801 1.03345C78.8294 0.996096 78.7866 0.948755 78.7541 0.894775C78.7216 0.84079 78.7 0.781145 78.6906 0.718994C78.6813 0.656763 78.6841 0.592854 78.6994 0.531494C78.7144 0.46982 78.7413 0.411703 78.7785 0.360596C78.8161 0.309023 78.8637 0.264871 78.9182 0.231689C78.9727 0.198457 79.0338 0.176969 79.0969 0.167236C79.1283 0.162389 79.16 0.160017 79.1916 0.161377L79.2863 0.175049L80.2892 0.430908C85.2332 1.72684 89.1661 3.30067 91.9123 5.05103C94.8354 6.91415 96.4504 9.00208 96.4504 11.1975V11.1985C96.4366 13.2599 95.0624 15.1811 92.6437 16.8958C91.3999 17.7775 89.8716 18.6083 88.0939 19.3831C88.5791 19.5976 89.0457 19.8142 89.4914 20.0364C91.6958 21.1352 93.4186 22.3281 94.592 23.5891C95.7662 24.8509 96.3976 26.1886 96.3976 27.5706C96.3976 28.9525 95.7661 30.2902 94.592 31.552C93.4185 32.813 91.6958 34.0059 89.4914 35.1047C85.3305 37.1789 79.4281 38.9287 72.1887 40.1604C71.9435 40.2677 71.7002 40.3798 71.4621 40.5032C70.6977 41.0483 70.1732 41.8678 69.9973 42.7903L69.9963 42.7942C69.8365 43.5187 69.8437 44.65 69.8937 45.6135C69.9186 46.092 69.9537 46.5244 69.9826 46.8372C69.997 46.9935 70.0105 47.1201 70.0197 47.2073C70.0243 47.2509 70.0279 47.285 70.0305 47.3079C70.0317 47.319 70.0327 47.3275 70.0334 47.3333C70.0337 47.3361 70.0342 47.3387 70.0344 47.3401V47.342L69.7365 47.3792V47.3772L69.7355 47.3752V47.3674C69.7348 47.3618 69.7329 47.3544 69.7316 47.345C69.7285 47.3222 69.7242 47.2886 69.718 47.2454C69.7054 47.1586 69.6868 47.0323 69.6623 46.8772C69.6132 46.5669 69.5404 46.1391 69.4465 45.6692C69.2574 44.7233 68.9852 43.6267 68.6516 42.9651L68.6496 42.9602C68.2564 42.1086 67.547 41.4438 66.6721 41.1067C65.2853 40.7794 63.8518 40.698 62.4367 40.8655L62.3986 40.5676C63.8147 40.3787 65.1869 39.9447 66.4553 39.2874C67.2222 38.7449 67.7485 37.9258 67.9211 37.0022L67.9221 36.9973C68.0817 36.2728 68.0746 35.1423 68.0246 34.179C67.9998 33.7002 67.9646 33.2672 67.9357 32.9543C67.9213 32.7981 67.9088 32.6714 67.8996 32.5842C67.895 32.5409 67.8904 32.5074 67.8879 32.4846C67.8866 32.4732 67.8856 32.464 67.8849 32.4583C67.8847 32.4558 67.8851 32.4538 67.8849 32.4524L67.884 32.4504L68.1818 32.4124V32.4153L68.1828 32.4172C68.183 32.4188 68.1834 32.4212 68.1838 32.4241C68.1841 32.4265 68.1844 32.4296 68.1848 32.4329C68.1853 32.437 68.186 32.4421 68.1867 32.4475C68.1899 32.4703 68.1942 32.5039 68.2004 32.5471C68.2129 32.6338 68.2315 32.7594 68.256 32.9143C68.3051 33.2247 68.378 33.653 68.4719 34.1233C68.6372 34.9515 68.8665 35.8962 69.1447 36.5647L69.2668 36.8333L69.2687 36.8381C69.6621 37.6897 70.3721 38.3536 71.2473 38.6907C71.9142 38.8467 72.5916 38.9452 73.2726 38.9885C79.7584 37.8117 85.0566 36.2305 88.8469 34.3987C90.9841 33.3658 92.6348 32.2573 93.7492 31.1047C94.8631 29.9527 95.4328 28.7658 95.4328 27.5706C95.4328 26.3753 94.8631 25.1889 93.7492 24.0374C92.6348 22.8854 90.9841 21.7776 88.8469 20.7454C88.2361 20.4504 87.5854 20.1635 86.8976 19.8821C85.5227 20.4284 84.0183 20.9431 82.3976 21.4221C75.1821 23.5549 65.6355 24.9911 54.8596 25.4104V25.4221C53.435 25.4334 52.023 25.6911 50.6867 26.1848C49.8624 26.6293 49.2423 27.3764 48.9572 28.2688L48.9553 28.2756C48.6934 28.973 48.5581 30.095 48.4904 31.0579C48.4568 31.5361 48.4402 31.9703 48.4318 32.2844C48.4276 32.4411 48.426 32.5679 48.425 32.6555C48.4245 32.6991 48.4241 32.7331 48.424 32.7561V32.7913L48.1232 32.7922V32.7571C48.123 32.7341 48.123 32.7002 48.1223 32.6565C48.1208 32.5688 48.1173 32.4415 48.1125 32.2844C48.1028 31.9702 48.0853 31.5362 48.051 31.0579C47.9818 30.0951 47.8487 28.9721 47.5978 28.2737L47.5959 28.2688C47.3114 27.3757 46.6896 26.6288 45.8635 26.1868C44.5284 25.692 43.1174 25.4331 41.6935 25.4221V25.4114C30.9173 24.9923 21.3692 23.5552 14.1574 21.4221C12.5402 20.9438 11.039 20.4305 9.66718 19.885C8.97512 20.1681 8.32048 20.4564 7.70624 20.7532C5.56892 21.7858 3.9183 22.8944 2.80389 24.0461C1.69006 25.1974 1.1203 26.3827 1.1203 27.5764C1.12031 28.7702 1.69003 29.9559 2.80389 31.1077C3.9183 32.26 5.56892 33.3692 7.70624 34.4026C11.4916 36.2327 16.7808 37.8139 23.2551 38.9905C23.9424 38.9478 24.626 38.8481 25.299 38.6907C26.1745 38.3537 26.8851 37.69 27.2785 36.8381L27.2805 36.8333L27.4025 36.5647C27.6807 35.8962 27.91 34.9515 28.0754 34.1233C28.1693 33.653 28.2411 33.2247 28.2902 32.9143C28.3147 32.7594 28.3334 32.6339 28.3459 32.5471C28.3521 32.5039 28.3574 32.4703 28.3605 32.4475C28.3613 32.4421 28.3619 32.437 28.3625 32.4329C28.3629 32.4296 28.3632 32.4265 28.3635 32.4241C28.3638 32.4212 28.3643 32.4187 28.3644 32.4172V32.4153L28.3654 32.4133L28.6633 32.4504H28.6623V32.4583C28.6616 32.464 28.6606 32.4732 28.6594 32.4846C28.6568 32.5074 28.6522 32.5409 28.6476 32.5842C28.6384 32.6714 28.6259 32.7981 28.6115 32.9543C28.5826 33.2672 28.5475 33.7002 28.5226 34.179C28.4789 35.0221 28.4675 35.9933 28.5724 36.7083L28.6252 36.9973L28.6262 37.0032C28.7963 37.9263 29.3212 38.7458 30.0881 39.2864C31.3567 39.9457 32.7303 40.3797 34.1476 40.5676L34.1105 40.8655C32.6952 40.6967 31.2611 40.777 29.8742 41.1057C28.9995 41.4429 28.2908 42.1088 27.8976 42.9602L27.8957 42.9651L27.7619 42.8977L27.8947 42.9651C27.5583 43.6264 27.2871 44.7233 27.0988 45.6692C27.0053 46.1391 26.9326 46.5669 26.884 46.8772C26.8597 47.0323 26.8416 47.1586 26.8293 47.2454C26.8231 47.2886 26.8187 47.3223 26.8156 47.345C26.8143 47.3544 26.8125 47.3619 26.8117 47.3674C26.8114 47.3702 26.8119 47.3727 26.8117 47.3743L26.8107 47.3752V47.3792L26.5129 47.342V47.3401C26.513 47.3387 26.5135 47.3361 26.5139 47.3333C26.5145 47.3275 26.5155 47.319 26.5168 47.3079C26.5193 47.285 26.5229 47.2509 26.5275 47.2073C26.5368 47.1201 26.5502 46.9935 26.5646 46.8372C26.5934 46.5244 26.628 46.092 26.6525 45.6135C26.7018 44.6501 26.7076 43.5194 26.5451 42.7952L26.5441 42.7893C26.3717 41.867 25.8482 41.0475 25.0842 40.5032C24.8529 40.3834 24.617 40.2738 24.3791 40.1692C17.1305 38.9375 11.2207 37.1889 7.05585 35.1135C4.85157 34.0151 3.12871 32.822 1.95526 31.5608C0.781071 30.2987 0.149606 28.9598 0.149597 27.5764C0.149597 26.193 0.781062 24.8542 1.95526 23.592C3.12872 22.3308 4.85155 21.1378 7.05585 20.0393C7.50454 19.8157 7.97439 19.5979 8.46307 19.3821C6.68971 18.6079 5.16625 17.7768 3.92694 16.8958C1.51513 15.181 0.149716 13.2593 0.149597 11.1975C0.149597 9.00225 1.75848 6.9143 4.67889 5.05103C7.60536 3.18389 11.8852 1.51745 17.3137 0.175049V0.176025C17.3731 0.156349 17.4356 0.14742 17.4982 0.151611Z" fill="#223622" stroke="#223622" stroke-width="0.3"/>
</svg>
